<svg width="401" height="443" viewBox="0 0 401 443" fill="none" xmlns="http://www.w3.org/2000/svg">
<path d="M275.516 116.777C275.513 116.78 275.509 116.783 275.506 116.786L275.516 116.777ZM360.486 306.327C361.23 306.123 361.979 305.917 362.724 305.712C362.827 305.684 362.93 305.656 363.033 305.627C363.263 305.564 363.493 305.501 363.723 305.438M355.639 334.1C355.629 334.098 355.619 334.096 355.609 334.094C355.34 334.041 355.07 333.988 354.8 333.935C355.071 333.988 355.342 334.042 355.609 334.094L355.639 334.1ZM349.747 151.639C349.75 151.642 349.752 151.645 349.755 151.648L349.747 151.639ZM62.8078 199.672C62.589 199.501 62.3702 199.329 62.1514 199.158C62.3688 199.328 62.5903 199.502 62.8078 199.672ZM76.0754 164.153C76.0821 164.127 76.0888 164.102 76.0956 164.076C76.0891 164.101 76.0819 164.128 76.0754 164.153ZM55.7337 193.34C55.7375 193.326 55.7425 193.308 55.7463 193.294C55.7421 193.309 55.7379 193.325 55.7337 193.34Z" fill="#23231A"/>
<path d="M113.691 410.31C113.691 411.482 113.694 412.59 113.697 413.651C113.697 413.802 113.698 413.954 113.698 414.103V414.105C113.706 416.629 113.712 418.897 113.682 421.166C113.648 423.754 114.641 425.871 116.357 427.744C120.182 431.9 129.157 435.42 135.604 431.831C136.659 431.238 137.809 430.794 138.967 430.419C144.823 428.502 147.82 424.494 148.491 418.369C149.022 413.551 149.972 408.82 152.507 404.463C154.895 400.368 156.263 399.384 160.889 400.508C165.394 401.605 169.864 402.843 174.325 404.115C179.413 405.57 184.58 406.511 189.86 406.075C200.385 405.195 210.91 404.211 221.401 403.043C222.96 402.869 224.564 401.719 225.827 400.647C228.476 398.373 231.891 398.8 233.451 401.919C233.791 402.6 233.957 403.376 234.121 404.148C234.18 404.424 234.238 404.699 234.305 404.969C234.617 406.28 234.912 407.597 235.207 408.913C235.909 412.045 236.611 415.177 237.537 418.238C238.077 420.033 239.28 421.863 240.691 423.1C243.427 425.496 246.442 427.605 249.491 429.591C253.874 432.458 261.89 432.597 265.079 429.783C273.034 422.787 274.637 412.035 270.22 403.897C269.087 401.806 268.416 399.793 269.984 397.737C271.675 395.533 273.923 394.923 276.685 395.419C277.922 395.646 279.447 395.454 280.571 394.905C281.665 394.372 282.653 393.625 283.644 392.875C284.175 392.473 284.708 392.07 285.258 391.699C286.422 390.911 287.599 390.142 288.776 389.373C291.087 387.863 293.398 386.353 295.609 384.702C298.066 382.873 300.436 380.834 302.458 378.542C303.561 377.298 304.502 375.909 305.442 374.52C306.425 373.068 307.407 371.617 308.574 370.335C315.283 362.937 318.751 354.076 320.946 344.536C323.578 333.095 324.893 321.455 325.861 309.797C326.497 302.182 326.836 294.419 326.078 286.847C325.451 280.594 324.094 274.408 322.738 268.226C322.267 266.078 321.796 263.93 321.356 261.78C319.274 251.638 315.719 242.097 310.02 233.358C308.429 230.91 306.982 228.37 305.543 225.824C305.448 225.654 305.351 225.484 305.256 225.314C304.215 223.472 303.175 221.628 302.083 219.818C301.769 219.295 300.75 218.956 300.053 218.947C298.578 218.922 297.102 218.957 295.626 218.992C293.45 219.044 291.275 219.096 289.109 218.956C278.793 218.276 268.808 217.047 259.206 212.081C249.474 207.045 242.024 200.266 236.352 191.179C232.344 184.757 229.382 177.996 229.739 170.207C229.826 168.412 229.042 167.976 227.413 168.176C226.935 168.235 226.456 168.293 225.978 168.35C220.872 168.964 215.784 169.575 211.067 171.949C209.002 172.986 206.902 172.855 205.195 171.078C203.696 169.518 203.748 167.314 204.881 164.927C205.508 163.611 205.918 162.095 205.996 160.64C206.105 158.658 206.119 156.673 206.133 154.688C206.144 153.025 206.155 151.36 206.223 149.696C206.641 139.014 210.858 129.831 217.454 121.614C222.115 115.812 227.805 111.211 233.869 106.916C240.927 101.914 247.766 96.5733 254.414 91.0231C257.037 88.8362 259.416 85.987 260.966 82.9549C266.464 72.177 268.608 60.8763 264.643 49.0092C263.772 46.4128 262.892 43.825 262.003 41.2373C260.801 37.7346 258.57 35.0772 255.547 32.9251C253.588 31.5301 251.679 30.0691 249.77 28.6083C247.756 27.0674 245.742 25.5266 243.671 24.064C243.45 23.9077 243.228 23.7501 243.006 23.5921C240.75 21.9892 238.428 20.3392 235.882 19.4113C235.138 19.1411 234.395 18.8697 233.651 18.598C233.403 18.5075 233.154 18.4165 232.907 18.3261C225.189 15.5054 217.442 12.674 209.49 10.7593C205.346 9.76172 200.812 10.1536 196.384 10.5364C195.552 10.6083 194.724 10.6799 193.903 10.7419C190.993 10.9597 188.353 12.589 186.95 15.3772C184.109 21.0058 187.804 29.7449 193.685 31.897C196.354 32.8719 199.002 33.9117 201.648 34.9513C205.861 36.6061 210.073 38.2602 214.369 39.6515C224.755 43.0147 231.124 50.5514 236.248 59.5432C239.14 64.6142 239.358 69.9116 236.631 75.0349C236.527 75.23 236.423 75.4255 236.319 75.6213C236.305 75.6493 236.29 75.6773 236.275 75.7053C234.22 79.5758 232.106 83.5566 229.19 86.7277C224.6 91.7155 219.77 96.4819 214.911 101.219C214.656 101.468 214.401 101.716 214.146 101.965C213.924 102.181 213.701 102.398 213.479 102.614C213.262 102.825 213.045 103.037 212.828 103.248C212.717 103.356 212.604 103.466 212.492 103.575C210.814 105.208 209.137 106.842 207.469 108.484C206.563 109.373 205.43 110.087 204.297 110.706C199.427 113.354 195.288 116.866 191.55 120.935C189.872 122.766 188.124 124.53 186.375 126.295C185.236 127.443 184.096 128.593 182.977 129.761C179.3 133.595 176.677 138.03 176.207 143.379C175.91 146.769 175.867 150.254 176.311 153.617C177.174 160.152 179.265 166.329 183.238 171.723C185.512 174.816 184.388 178.109 180.659 179.468C178.525 180.247 176.414 181.094 174.305 181.942L174.303 181.942C172.752 182.565 171.203 183.187 169.646 183.781C168.078 184.383 167.415 185.541 166.797 187.049C166.277 188.307 165.776 189.579 165.276 190.854C165.243 190.938 165.209 191.024 165.176 191.108C163.479 195.432 161.777 199.769 159.365 203.647C155.792 209.38 151.871 215.183 145.511 218.468C144.36 219.06 143.217 219.677 142.073 220.295C138.929 221.991 135.781 223.69 132.459 224.898C120.914 229.089 109.038 230.849 96.8577 227.843C94.9322 227.364 94.1306 227.886 93.5381 229.699C92.2501 233.661 90.9322 237.612 89.6105 241.562C89.4223 242.125 89.2321 242.693 89.0439 243.255L89.0431 243.257C87.6117 247.533 86.18 251.81 84.7816 256.099C80.9305 267.931 77.9419 279.92 78.2033 292.502C78.2178 293.219 78.1407 293.933 78.0634 294.65C78.0017 295.221 77.9399 295.794 77.9245 296.37C77.8758 298.045 77.8155 299.72 77.7544 301.394C77.7504 301.505 77.7462 301.619 77.7422 301.729C77.5775 306.242 77.4128 310.756 77.4627 315.269C77.5498 323.947 79.1792 332.329 83.0216 340.214C84.4869 343.226 85.9164 346.257 87.3438 349.29C87.4387 349.492 87.5343 349.695 87.6292 349.897C90.2144 355.39 92.7999 360.884 95.5857 366.274C99.8637 374.56 106.111 381.095 114.589 385.338C117.882 386.985 118.44 389.704 116.81 392.997C115.721 395.201 114.719 397.589 114.362 399.994C113.97 402.614 113.88 405.278 113.801 407.641C113.769 408.586 113.739 409.483 113.691 410.31Z" fill="#23231A"/>
<path d="M355.639 334.1L355.652 334.103C355.986 334.169 356.321 334.235 356.655 334.3C356.323 334.235 355.984 334.168 355.652 334.103C355.648 334.102 355.643 334.101 355.639 334.1ZM286.034 178.074C285.552 177.987 285.069 177.916 284.422 177.821C284.38 177.815 284.334 177.808 284.29 177.801M289.43 178.687C288.297 178.488 287.162 178.287 286.034 178.074L289.43 178.687ZM289.43 178.687C292.187 179.174 294.946 179.66 297.657 180.34L289.43 178.687ZM297.657 180.34C300.149 180.967 301.36 183.041 301.072 185.088L297.657 180.34ZM301.072 185.088C300.767 187.223 298.877 188.852 296.332 188.896L301.072 185.088ZM296.332 188.896C295.437 188.912 294.541 188.768 293.646 188.623L296.332 188.896ZM293.646 188.623C293.113 188.537 292.579 188.451 292.046 188.399L293.646 188.623ZM292.046 188.399L290.62 188.26L292.046 188.399ZM273.234 186.648C279.031 187.131 284.831 187.696 290.62 188.26L273.234 186.648ZM273.234 186.648C272.293 186.57 271.082 186.648 270.385 187.171L273.234 186.648ZM252.5 196C252.5 196 252.562 196.058 252.673 196.161C253.547 196.972 257.454 200.58 258.265 200.989M259.711 201.728C259.544 201.643 259.377 201.557 259.209 201.472C259.125 201.429 259.041 201.386 258.958 201.343C258.93 201.329 258.903 201.315 258.875 201.301C258.672 201.197 258.469 201.093 258.265 200.989M269.906 206.775C266.468 205.182 263.088 203.454 259.711 201.728L269.906 206.775ZM269.906 206.775C271.466 207.498 273.199 208.108 274.898 208.239L269.906 206.775ZM274.898 208.239C276.336 208.353 277.774 208.475 279.213 208.596L274.898 208.239ZM152.464 195.866C158.328 186.927 160.279 177.56 158.267 167.218L152.464 195.866ZM158.267 167.218C155.078 150.794 148.961 135.607 139.734 121.693L158.267 167.218ZM139.734 121.693C138.327 119.57 136.606 117.656 134.886 115.743L139.734 121.693ZM134.886 115.743C134.093 114.86 133.299 113.978 132.537 113.076L134.886 115.743ZM132.537 113.076C132.437 113.128 132.337 113.182 132.237 113.237L132.537 113.076ZM132.237 113.237C132.215 113.249 132.193 113.261 132.171 113.273L132.237 113.237ZM131.938 113.844C131.937 113.748 131.937 113.652 131.936 113.556C131.936 113.503 131.936 113.451 131.936 113.398C131.968 113.382 131.999 113.365 132.031 113.348C132.048 113.339 132.066 113.329 132.084 113.32L132.119 113.301C132.136 113.291 132.154 113.282 132.171 113.273M131.94 114.194C131.939 114.079 131.938 113.959 131.938 113.844L131.94 114.194ZM131.94 114.194L131.942 114.465L131.94 114.194ZM131.942 114.465C131.945 114.906 131.946 115.347 131.936 115.785L131.942 114.465ZM131.936 115.785C131.904 117.411 131.894 119.039 131.883 120.666L131.936 115.785ZM131.883 120.666C131.857 124.814 131.83 128.963 131.448 133.081L131.883 120.666ZM131.448 133.081C131.196 135.834 129.88 138.596 128.59 141.123L131.448 133.081ZM128.59 141.123C127.615 143.022 125.611 143.937 123.336 143.562L128.59 141.123ZM123.336 143.562C121.028 143.179 119.755 141.576 119.241 139.459L123.336 143.562ZM119.241 139.459C117.297 131.416 111.264 126.942 105.225 122.465L119.241 139.459ZM103.21 120.961C103.611 121.264 104.015 121.566 104.42 121.867C104.478 121.91 104.536 121.953 104.594 121.996C104.713 122.085 104.834 122.174 104.954 122.263C105.043 122.33 105.136 122.399 105.225 122.465M103.21 120.961C103.155 120.923 103.059 120.936 102.886 120.959L103.21 120.961ZM102.886 120.959C102.783 120.974 102.652 120.991 102.486 121.004L102.886 120.959ZM102.486 121.004C102.591 121.281 102.704 121.546 102.814 121.804L102.486 121.004ZM102.814 121.804C103.033 122.32 103.242 122.811 103.358 123.322L102.814 121.804ZM103.358 123.322C103.635 124.516 103.926 125.707 104.217 126.899L103.358 123.322ZM104.217 126.899C105.04 130.266 105.862 133.635 106.39 137.045L104.217 126.899ZM106.39 137.045C106.782 139.581 105.144 141.471 103.14 141.916L106.39 137.045ZM103.14 141.916C100.761 142.438 99.2625 141.192 98.0776 139.293L103.14 141.916ZM98.0776 139.293C98.0313 139.218 97.9849 139.143 97.9384 139.067L98.0776 139.293ZM97.9384 139.067C97.3898 138.176 96.8192 137.249 96.0562 136.566L97.9384 139.067ZM96.0562 136.566C90.3753 131.451 84.0061 127.487 76.3997 126.058L96.0562 136.566ZM76.3997 126.058C68.9912 124.667 61.5585 123.417 54.1232 122.167L76.3997 126.058ZM54.1232 122.167C51.5898 121.74 49.0561 121.314 46.523 120.882L54.1232 122.167ZM46.523 120.882C46.3121 120.848 46.0863 120.892 45.7968 120.949L46.523 120.882ZM45.7968 120.949C45.6437 120.979 45.4729 121.012 45.277 121.039L45.7968 120.949ZM45.277 121.039C45.8166 121.798 46.3502 122.532 46.8737 123.252L45.277 121.039ZM46.8737 123.252C48.0154 124.822 49.1091 126.326 50.1127 127.879L46.8737 123.252ZM50.1127 127.879C51.1506 129.484 52.1421 131.125 53.1338 132.765L50.1127 127.879ZM53.1338 132.765C54.8976 135.683 56.6618 138.601 58.6863 141.323L53.1338 132.765ZM58.6863 141.323C59.0799 141.853 59.4698 142.386 59.8593 142.921L58.6863 141.323ZM59.8593 142.921L60.1018 143.254L59.8593 142.921ZM60.1018 143.254C63.6746 148.161 67.2649 153.092 73.324 155.586L60.1018 143.254ZM73.324 155.586C77.8286 157.442 78.1597 158.854 76.3213 163.341L73.324 155.586ZM76.3213 163.341C76.2254 163.577 76.1607 163.825 76.0956 164.076L76.3213 163.341ZM76.0956 164.076L76.0754 164.153L76.0956 164.076ZM76.0754 164.153L76.0599 164.212L76.0754 164.153ZM76.0599 164.212C75.0492 168.325 72.9494 170.172 68.7759 169.632L76.0599 164.212ZM68.7759 169.632C66.2232 169.302 63.7218 168.587 61.2217 167.873L68.7759 169.632Z" fill="#23231A"/>
<path fill-rule="evenodd" clip-rule="evenodd" d="M275.516 116.777L275.506 116.786C275.071 117.152 274.553 117.587 273.774 118.251C273.688 117.194 273.607 116.189 273.53 115.226L273.525 115.153L273.523 115.14C273.363 113.131 273.215 111.287 273.051 109.442C272.894 107.7 273.348 106.341 274.498 104.877C275.334 103.814 275.805 101.723 275.308 100.564C274.768 99.3005 273.016 97.9674 271.648 97.7931C270.002 97.5927 267.902 98.1503 266.534 99.1262C256.958 105.94 248.254 113.851 242.974 124.429C237.764 134.858 232.667 145.479 230.584 157.172C230.48 157.791 229.687 158.671 229.112 158.758C225.06 159.385 220.983 159.89 216.905 160.291C216.417 160.335 215.371 159.516 215.363 159.08C215.223 152.075 215.145 145.087 218.02 138.448C222.176 128.864 229.042 121.684 237.468 115.707C244.534 110.697 251.417 105.426 258.239 100.093C270.498 90.5004 274.959 77.1608 275.839 62.2704C276.345 53.7839 273.539 45.9336 270.716 38.118C268.765 32.716 265.401 28.4815 260.661 25.2229C258.909 24.0217 257.225 22.7218 255.542 21.4223C253.795 20.073 252.047 18.724 250.223 17.4857C249.619 17.0773 249.016 16.6614 248.411 16.2444C245.377 14.1533 242.305 12.0365 238.949 10.7071C232.396 8.10448 225.666 5.92667 218.943 3.75129C217.496 3.28302 216.049 2.81486 214.605 2.3426C207.643 0.0685216 200.472 0.199212 193.371 1.35804C181.522 3.30103 175.466 11.4825 177.209 23.3321C178.437 31.6879 182.454 37.9786 191.08 40.8713C199.131 43.5723 207.051 46.7439 214.849 50.1158C217.602 51.3094 220.103 53.4529 222.22 55.6398C223.795 57.273 225.058 59.2251 226.315 61.1685C226.761 61.8582 227.207 62.5469 227.665 63.2201C229.626 66.0866 229.539 68.9968 227.892 72.0289C224.747 77.8317 220.939 83.0856 216.077 87.5728C214.466 89.06 212.878 90.5793 211.291 92.0978C209.307 93.9952 207.323 95.8932 205.291 97.7321C203.504 99.3469 201.61 100.847 199.719 102.346C199.12 102.819 198.523 103.293 197.928 103.77C196.698 104.755 195.447 105.718 194.196 106.68C191.663 108.629 189.129 110.578 186.767 112.718C184.173 115.071 181.758 117.622 179.344 120.174C178.36 121.213 177.377 122.252 176.381 123.279C171.484 128.323 167.982 134.231 167.189 141.236C166.257 149.522 166.657 157.808 169.951 165.685C170.153 166.17 170.364 166.654 170.574 167.136C171.126 168.4 171.677 169.661 172.068 170.973C172.251 171.566 171.807 172.603 171.301 173.056C170.881 173.429 170.292 173.617 169.641 173.824C169.333 173.922 169.012 174.025 168.687 174.154C168.678 174.107 168.668 174.061 168.659 174.016C168.645 173.952 168.632 173.89 168.619 173.829C168.587 173.677 168.555 173.535 168.525 173.399C168.423 172.934 168.339 172.553 168.287 172.167C166.03 156.135 161.447 140.914 153.509 126.685C147.619 116.125 140.606 106.645 130.908 99.3092C129.819 98.4902 128.695 97.6973 127.51 97.0177C125.454 95.8414 123.293 95.5364 121.324 97.1396C119.337 98.7515 119.128 100.973 120.026 103.16C122.666 109.59 122.831 116.343 122.849 123.122C122.849 123.488 122.79 123.85 122.723 124.267C122.687 124.496 122.647 124.741 122.613 125.012C122.449 124.907 122.307 124.824 122.185 124.753C121.964 124.624 121.804 124.531 121.681 124.403C112.829 115.114 101.946 108.798 90.567 103.221C89.3559 102.62 88.0141 102.193 86.681 101.975C84.3285 101.583 82.2287 102.699 81.3748 104.642C80.4251 106.811 81.157 108.58 82.6556 110.253C85.1715 113.064 87.618 115.936 90.0676 118.812L90.5321 119.358C90.848 119.728 91.0961 120.158 91.3443 120.588C91.4522 120.775 91.5601 120.962 91.6735 121.144C90.7379 121.257 90.0934 121.034 89.4568 120.813C89.4057 120.796 89.3547 120.778 89.3036 120.76C88.0224 120.331 86.7505 119.861 85.4789 119.391C82.6777 118.357 79.878 117.323 76.9835 116.718C68.8107 115.001 60.5508 113.651 52.2822 112.413C46.7479 111.587 41.1755 110.974 35.604 110.362C34.0708 110.193 32.5376 110.025 31.0052 109.852C28.3477 109.556 26.2479 110.88 25.6206 113.076C24.9932 115.263 26.0823 117.432 28.4697 118.669C28.7673 118.824 29.0841 118.944 29.4003 119.065C29.797 119.215 30.1934 119.366 30.5521 119.584C30.8295 119.751 31.1204 119.911 31.4132 120.073C32.3434 120.586 33.2927 121.109 33.8892 121.884C37.4876 126.581 40.9815 131.364 44.397 136.2C46.6236 139.351 48.8019 142.541 50.9778 145.728C52.3093 147.678 53.6406 149.628 54.9832 151.57C55.8359 152.808 56.7344 154.018 57.6322 155.228C57.9729 155.687 58.3135 156.145 58.6514 156.606C57.4664 156.701 56.6213 156.431 55.8197 156.065C54.056 155.254 52.2832 154.431 50.5229 153.614L50.5147 153.61C47.3862 152.158 44.2581 150.707 41.1122 149.287C38.2892 148.015 35.9367 148.372 34.4032 150.158C32.8349 151.988 32.9917 154.506 34.6646 157.12C41.4433 167.732 50.5309 175.853 61.4221 182.047C61.8927 182.321 62.3555 182.609 62.8183 182.898C63.0496 183.042 63.2809 183.186 63.5132 183.328C63.4697 183.529 63.4261 183.729 63.4 183.929H60.7512C59.3814 183.932 58.0104 183.921 56.64 183.909L56.0911 183.904C53.0771 183.88 50.0644 183.864 47.0632 184.008C42.3582 184.234 40.0144 188.286 42.4801 191.937C42.6066 192.124 42.7331 192.312 42.86 192.501C44.8134 195.405 46.8318 198.406 49.4418 200.624C56.0375 206.217 62.9033 211.532 69.926 216.577C73.2057 218.931 76.8635 220.796 80.4912 222.646C81.0627 222.937 81.6337 223.228 82.2025 223.521C84.8774 224.898 85.1301 225.037 84.2937 228C84.2006 228.328 84.0856 228.647 83.9702 228.968C83.8802 229.218 83.79 229.469 83.7099 229.725C82.6804 232.997 81.6467 236.268 80.6133 239.539L80.6086 239.554C77.8654 248.236 75.1223 256.918 72.4527 265.622C70.3878 272.34 69.4293 279.241 69.2377 286.289C69.1409 289.987 68.8519 293.681 68.5628 297.376C68.3833 299.672 68.2037 301.967 68.0701 304.264C67.983 305.728 67.4689 306.425 65.9964 306.172C64.5849 305.931 63.162 305.662 61.753 305.396C60.9321 305.241 60.1099 305.086 59.2875 304.935C57.1715 304.548 55.0597 304.107 52.9477 303.666C48.2067 302.675 43.4646 301.684 38.6726 301.31C30.7699 300.701 22.9457 299.986 15.1911 298.27C11.8715 297.538 8.42988 297.224 5.02311 297.041C2.61833 296.91 0.86703 298.67 0.614354 300.831C0.370391 302.896 1.59892 304.787 3.78587 305.536C4.43163 305.754 5.12096 305.862 5.80499 305.97C6.0242 306.004 6.24325 306.038 6.46075 306.077C7.07204 306.183 7.69054 306.28 8.30776 306.374C8.55751 306.412 8.8071 306.449 9.05599 306.486C10.748 306.739 12.4397 306.992 14.0933 307.401C21.5865 309.248 29.1929 309.936 36.8777 310.468C41.3336 310.772 45.7586 311.627 50.1809 312.48C51.9586 312.823 53.736 313.167 55.5147 313.474C56.8894 313.711 58.2589 313.978 59.6281 314.245C61.826 314.674 64.0233 315.102 66.2404 315.408C67.678 315.6 68.2095 316.07 68.3141 317.464C68.3533 317.996 68.3902 318.53 68.427 319.062C68.6109 321.721 68.7949 324.382 69.2812 326.988C69.7169 329.331 68.9066 329.994 66.7719 330.438C60.0803 331.841 53.4149 333.4 46.7669 335.012C44.1747 335.637 41.5912 336.319 39.0125 337L39.0099 337.001C36.1566 337.755 33.303 338.509 30.4301 339.186C27.6403 339.84 24.8248 340.43 22.0156 341.02C18.7998 341.695 15.5834 342.37 12.3943 343.141C9.45801 343.856 8.06394 346.147 8.63028 348.5C9.18791 350.844 11.4533 352.194 14.3983 351.706C18.0751 351.088 21.7259 350.338 25.3679 349.563C26.3869 349.345 27.4063 349.128 28.4259 348.91C34.093 347.703 39.766 346.493 45.4077 345.172C53.6937 343.229 61.9449 341.164 70.1961 339.09C71.8777 338.663 72.6531 339.221 73.2805 340.78C75.0405 345.145 76.9225 349.467 78.8568 353.763C79.397 354.956 78.97 355.47 78.0987 356.211C76.1188 357.898 74.1922 359.643 72.2649 361.389C71.4952 362.086 70.7255 362.784 69.9521 363.478C69.4204 363.957 68.897 364.453 68.3766 364.947C67.2436 366.021 66.1109 367.095 64.8637 368.026C62.2758 369.956 59.6562 371.849 57.0391 373.74C53.6213 376.21 50.2042 378.679 46.8541 381.235C44.3399 383.145 42.0769 385.393 39.8267 387.628L39.4655 387.987C38.629 388.815 37.993 389.965 37.6183 391.08C37.0084 392.884 37.444 394.583 39.0472 395.759C40.633 396.927 42.3494 396.857 43.9439 395.776C44.4409 395.44 44.8756 395.015 45.3104 394.589C45.5845 394.321 45.8586 394.053 46.1483 393.807C46.853 393.214 47.5464 392.601 48.2388 391.989C49.8834 390.535 51.528 389.082 53.3365 387.874C62.5897 381.714 71.5901 375.284 79.2663 367.146C80.123 366.242 81.1258 365.477 82.1461 364.698C82.6297 364.329 83.1177 363.957 83.5966 363.565C83.7632 363.776 83.9052 363.942 84.0191 364.076C84.213 364.302 84.3358 364.446 84.4069 364.61C89.0335 375.318 95.7338 384.345 105.527 390.923C106.05 391.272 106.294 392.483 106.198 393.224C106.076 394.146 105.862 395.06 105.649 395.973C105.358 397.216 105.068 398.455 105.013 399.706C104.755 405.54 104.631 411.374 104.507 417.208C104.476 418.667 104.445 420.126 104.412 421.584C104.299 426.516 106.311 430.585 109.587 434.114C116.035 441.066 129.296 445.527 139.107 440.387C140.248 439.786 141.468 439.324 142.679 438.879C151.584 435.638 156.446 429.295 157.552 419.92C157.781 417.949 158.215 416.002 158.649 414.054C158.794 413.402 158.939 412.749 159.077 412.096C159.443 410.371 160.367 409.735 162.214 410.31C164.312 410.965 166.435 411.539 168.556 412.112C169.96 412.491 171.362 412.87 172.756 413.272C178.96 415.067 185.303 415.816 191.716 415.276C201.788 414.44 211.851 413.429 221.906 412.383L222.275 412.345C224.1 412.155 225.041 412.057 225.645 412.462C226.289 412.893 226.551 413.896 227.09 415.964C227.165 416.25 227.239 416.536 227.314 416.822C228.469 421.279 229.651 425.835 233.294 428.929C237.059 432.126 241.164 434.931 245.251 437.722C245.552 437.928 245.853 438.133 246.154 438.339C247.496 439.254 249.204 439.812 250.816 440.108C263.737 442.504 270.063 440.056 276.536 430.576C281.485 423.336 282.609 415.485 281.198 407.068L281.18 406.967C280.988 405.861 280.848 405.059 282.243 404.306C284.759 402.942 287.165 401.362 289.568 399.783C290.201 399.367 290.835 398.951 291.47 398.538C291.81 398.318 292.149 398.098 292.488 397.878C294.885 396.324 297.278 394.773 299.591 393.102C300.23 392.641 300.89 392.187 301.55 391.737L301.727 391.615C304.034 390.039 306.357 388.451 308.104 386.393C311.747 382.11 315.055 377.538 318.36 372.972C319.244 371.75 320.126 370.531 321.016 369.315C321.844 368.183 322.402 367.782 323.717 368.67C326.055 370.245 328.476 371.738 330.875 373.218L330.877 373.219C331.511 373.611 332.146 374.002 332.779 374.395C339.078 378.307 344.872 382.794 349.638 388.562C351.764 391.124 354.134 393.529 356.661 395.698C358.952 397.667 361.802 397.362 363.413 395.437C364.964 393.581 364.668 391.037 362.621 388.876C361.987 388.204 361.336 387.548 360.685 386.893C359.402 385.601 358.122 384.312 356.983 382.907C351.302 375.885 344.262 370.526 336.621 365.865C334.868 364.797 333.133 363.696 331.401 362.598C330.181 361.825 328.961 361.052 327.734 360.289C326.601 359.591 326.375 358.772 326.749 357.422C328.239 352.011 329.677 346.574 330.905 341.103C331.332 339.177 331.951 338.585 333.938 339.012C349.168 342.261 364.415 345.433 379.663 348.596C381.972 349.075 384.298 349.511 386.633 349.755C389.622 350.068 391.765 348.622 392.227 346.243C392.698 343.804 391.112 341.556 388.115 340.85C382.721 339.587 377.302 338.402 371.865 337.312C366.464 336.232 361.058 335.167 355.652 334.103L355.639 334.1L355.609 334.094L354.8 333.935C348.116 332.619 341.424 331.3 334.748 329.95C334.173 329.837 333.319 328.87 333.354 328.364C333.711 323.59 334.19 318.824 334.765 314.066C334.826 313.561 335.628 312.899 336.212 312.733C337.382 312.405 338.574 312.142 339.759 311.881C340.868 311.638 341.975 311.394 343.069 311.095C348.853 309.522 354.633 307.934 360.413 306.347L360.431 306.342L360.45 306.337L360.468 306.332L360.486 306.327L362.724 305.712L363.033 305.627C370.815 303.491 378.597 301.358 386.39 299.263C388.38 298.728 390.41 298.342 392.441 297.956C393.849 297.688 395.258 297.42 396.653 297.102C399.433 296.466 400.992 294.497 400.766 292.153C400.531 289.722 398.474 288.006 395.538 288.171C393.298 288.301 391.067 288.736 388.861 289.167L388.786 289.182C376.223 291.62 363.982 295.296 351.749 298.969C347.677 300.192 343.607 301.414 339.522 302.591C338.793 302.802 338.051 302.988 337.328 303.17C337.006 303.25 336.688 303.33 336.377 303.41C335.262 272.558 329.79 243.247 310.961 217.544C311.586 217.379 312.143 217.241 312.646 217.116L312.65 217.115L312.662 217.112C313.558 216.89 314.299 216.706 315.022 216.472C315.944 216.176 316.891 215.918 317.84 215.662L318.02 215.613C320.417 214.966 322.819 214.318 324.867 213.092C330.722 209.589 336.36 205.668 341.736 201.469C343.734 199.912 345.5 198.064 347.268 196.214C348.705 194.708 350.145 193.202 351.712 191.85C355.581 188.512 358.56 184.548 361.192 180.253C363.239 176.916 363.396 174.58 361.662 172.725C359.92 170.851 357.802 170.956 354.178 172.847C349.028 175.53 343.818 174.868 338.111 173.073C338.434 172.861 338.702 172.674 338.933 172.512C339.338 172.228 339.64 172.017 339.967 171.862C353.768 165.24 361.044 153.8 364.076 139.232C364.537 136.993 363.675 134.945 361.854 133.952C360.024 132.95 357.855 133.298 356.217 134.928C355.982 135.163 355.782 135.439 355.584 135.714C355.333 136.061 355.082 136.408 354.761 136.67C353.573 137.654 352.347 138.599 351.122 139.545C350.577 139.965 350.032 140.385 349.49 140.809C349.333 140.626 349.185 140.434 349.028 140.243C349.102 140.061 349.172 139.877 349.241 139.694C349.383 139.315 349.526 138.937 349.708 138.578C350.735 136.577 351.776 134.583 352.817 132.589C355.007 128.394 357.196 124.2 359.257 119.941C362.516 113.232 366.184 106.942 372.64 102.707C374.357 101.583 375.019 99.6925 374.122 97.6624C373.198 95.5626 371.368 94.9614 369.216 95.1792C368.897 95.2118 368.579 95.2442 368.26 95.2766C365.937 95.5123 363.611 95.7483 361.305 96.0854C341.187 98.9955 321.914 104.354 304.688 115.655C304.646 115.681 304.562 115.641 304.349 115.537C304.209 115.469 304.014 115.375 303.738 115.254C304.41 114.335 305.063 113.415 305.711 112.502C307.233 110.359 308.728 108.253 310.378 106.28C312.53 103.718 313.209 101.819 312.024 99.771C310.778 97.6102 308.26 96.8521 305.159 97.9325C302.214 98.9519 299.321 100.119 296.446 101.322C289.959 104.035 284.82 108.59 279.683 113.145C278.452 114.237 277.22 115.329 275.97 116.395C275.823 116.52 275.674 116.644 275.516 116.777ZM113.697 413.651C113.694 412.59 113.691 411.482 113.691 410.31C113.739 409.483 113.769 408.586 113.801 407.641C113.88 405.278 113.97 402.614 114.362 399.994C114.719 397.589 115.721 395.201 116.81 392.997C118.44 389.704 117.882 386.985 114.589 385.338C106.111 381.095 99.8637 374.56 95.5857 366.274C92.7999 360.884 90.2144 355.39 87.6292 349.897L87.3438 349.29C85.9164 346.257 84.4869 343.226 83.0216 340.214C79.1792 332.329 77.5498 323.947 77.4627 315.269C77.4128 310.756 77.5775 306.242 77.7422 301.729L77.7544 301.394C77.8155 299.72 77.8758 298.045 77.9245 296.37C77.9399 295.794 78.0017 295.221 78.0634 294.65C78.1407 293.933 78.2178 293.219 78.2033 292.502C77.9419 279.92 80.9305 267.931 84.7816 256.099C86.1797 251.811 87.6121 247.532 89.0431 243.257L89.0439 243.255L89.6105 241.562C90.9322 237.612 92.2501 233.661 93.5381 229.699C94.1306 227.886 94.9322 227.364 96.8577 227.843C109.038 230.849 120.914 229.089 132.459 224.898C135.781 223.69 138.929 221.991 142.073 220.295C143.217 219.677 144.36 219.06 145.511 218.468C151.871 215.183 155.792 209.38 159.365 203.647C161.777 199.769 163.479 195.432 165.176 191.108L165.276 190.854C165.776 189.579 166.277 188.307 166.797 187.049C167.415 185.541 168.078 184.383 169.646 183.781C171.203 183.187 172.752 182.565 174.303 181.942L174.305 181.942C176.414 181.094 178.525 180.247 180.659 179.468C184.388 178.109 185.512 174.816 183.238 171.723C179.265 166.329 177.174 160.152 176.311 153.617C175.867 150.254 175.91 146.769 176.207 143.379C176.677 138.03 179.3 133.595 182.977 129.761C184.096 128.593 185.236 127.443 186.375 126.295C188.124 124.53 189.872 122.766 191.55 120.935C195.288 116.866 199.427 113.354 204.297 110.706C205.43 110.087 206.563 109.373 207.469 108.484C209.137 106.842 210.814 105.208 212.492 103.575L212.828 103.248L213.479 102.614L214.146 101.965L214.911 101.219C219.77 96.4819 224.6 91.7155 229.19 86.7277C232.106 83.5566 234.22 79.5758 236.275 75.7053L236.319 75.6213C236.423 75.4255 236.527 75.23 236.631 75.0349C239.358 69.9116 239.14 64.6142 236.248 59.5432C231.124 50.5514 224.755 43.0147 214.369 39.6515C210.073 38.2602 205.861 36.6061 201.648 34.9513C199.002 33.9117 196.354 32.8719 193.685 31.897C187.804 29.7449 184.109 21.0058 186.95 15.3772C188.353 12.589 190.993 10.9597 193.903 10.7419C194.724 10.6799 195.552 10.6083 196.384 10.5364C200.812 10.1536 205.346 9.76172 209.49 10.7593C217.442 12.674 225.189 15.5054 232.907 18.3261L233.651 18.598C234.395 18.8697 235.138 19.1411 235.882 19.4113C238.428 20.3392 240.75 21.9892 243.006 23.5921C243.228 23.7501 243.45 23.9077 243.671 24.064C245.742 25.5266 247.756 27.0674 249.77 28.6083C251.679 30.0691 253.588 31.5301 255.547 32.9251C258.57 35.0772 260.801 37.7346 262.003 41.2373C262.892 43.825 263.772 46.4128 264.643 49.0092C268.608 60.8763 266.464 72.177 260.966 82.9549C259.416 85.987 257.037 88.8362 254.414 91.0231C247.766 96.5733 240.927 101.914 233.869 106.916C227.805 111.211 222.115 115.812 217.454 121.614C210.858 129.831 206.641 139.014 206.223 149.696C206.155 151.36 206.144 153.025 206.133 154.688C206.119 156.673 206.105 158.658 205.996 160.64C205.918 162.095 205.508 163.611 204.881 164.927C203.748 167.314 203.696 169.518 205.195 171.078C206.902 172.855 209.002 172.986 211.067 171.949C215.784 169.575 220.872 168.964 225.978 168.35C226.456 168.293 226.935 168.235 227.413 168.176C229.042 167.976 229.826 168.412 229.739 170.207C229.382 177.996 232.344 184.757 236.352 191.179C242.024 200.266 249.474 207.045 259.206 212.081C268.808 217.047 278.793 218.276 289.109 218.956C291.275 219.096 293.45 219.044 295.626 218.992C297.102 218.957 298.578 218.922 300.053 218.947C300.75 218.956 301.769 219.295 302.083 219.818C303.175 221.628 304.215 223.472 305.256 225.314L305.543 225.824C306.982 228.37 308.429 230.91 310.02 233.358C315.719 242.097 319.274 251.638 321.356 261.78C321.796 263.93 322.267 266.078 322.738 268.226C324.094 274.408 325.451 280.594 326.078 286.847C326.836 294.419 326.497 302.182 325.861 309.797C324.893 321.455 323.578 333.095 320.946 344.536C318.751 354.076 315.283 362.937 308.574 370.335C307.407 371.617 306.425 373.068 305.442 374.52C304.502 375.909 303.561 377.298 302.458 378.542C300.436 380.834 298.066 382.873 295.609 384.702C293.398 386.353 291.087 387.863 288.776 389.373C287.599 390.142 286.422 390.911 285.258 391.699C284.708 392.07 284.175 392.473 283.644 392.875C282.653 393.625 281.665 394.372 280.571 394.905C279.447 395.454 277.922 395.646 276.685 395.419C273.923 394.923 271.675 395.533 269.984 397.737C268.416 399.793 269.087 401.806 270.22 403.897C274.637 412.035 273.034 422.787 265.079 429.783C261.89 432.597 253.874 432.458 249.491 429.591C246.442 427.605 243.427 425.496 240.691 423.1C239.28 421.863 238.077 420.033 237.537 418.238C236.611 415.177 235.909 412.045 235.207 408.913C234.912 407.597 234.617 406.28 234.305 404.969C234.238 404.699 234.18 404.424 234.121 404.148C233.957 403.376 233.791 402.6 233.451 401.919C231.891 398.8 228.476 398.373 225.827 400.647C224.564 401.719 222.96 402.869 221.401 403.043C210.91 404.211 200.385 405.195 189.86 406.075C184.58 406.511 179.413 405.57 174.325 404.115C169.864 402.843 165.394 401.605 160.889 400.508C156.263 399.384 154.895 400.368 152.507 404.463C149.972 408.82 149.022 413.551 148.491 418.369C147.82 424.494 144.823 428.502 138.967 430.419C137.809 430.794 136.659 431.238 135.604 431.831C129.157 435.42 120.182 431.9 116.357 427.744C114.641 425.871 113.648 423.754 113.682 421.166C113.712 418.897 113.706 416.629 113.698 414.105V414.103L113.697 413.651ZM283.306 177.656C283.676 177.711 284 177.759 284.29 177.801L284.422 177.821C285.069 177.916 285.552 177.987 286.034 178.074C287.162 178.287 288.297 178.488 289.43 178.687C292.187 179.174 294.946 179.66 297.657 180.34C300.149 180.967 301.36 183.041 301.072 185.088C300.767 187.223 298.877 188.852 296.332 188.896C295.437 188.912 294.541 188.768 293.646 188.623C293.113 188.537 292.579 188.451 292.046 188.399L290.62 188.26C284.831 187.696 279.031 187.131 273.234 186.648C272.293 186.57 271.082 186.648 270.385 187.171L258.5 193C258.5 193 257 194 255 195C253 196 250.713 191.969 252 190.508L254.565 187.523C256.257 186.153 257.948 184.784 259.616 183.389C260.095 182.988 260.47 182.274 260.566 181.655C261.457 175.823 262.33 169.987 263.199 164.152L263.378 162.95L263.474 162.305L263.481 162.258L263.699 160.792L263.799 160.119L263.801 160.109L263.817 160.002C264.185 157.528 264.553 155.054 264.922 152.58C264.935 152.496 264.947 152.411 264.959 152.326C265.067 151.581 265.176 150.828 265.419 150.132C266.055 148.328 267.327 147.178 269.296 147.126C271.378 147.074 272.877 148.215 273.365 150.141C273.783 151.796 273.923 153.617 273.722 155.316C273.265 159.217 272.704 163.109 272.142 166.998C271.911 168.6 271.68 170.2 271.457 171.801C271.422 172.044 271.391 172.287 271.36 172.54L271.351 172.61L271.338 172.725L271.336 172.737L271.334 172.758L271.318 172.891L271.296 173.078L271.286 173.162L271.284 173.18L271.277 173.242L271.272 173.288L271.256 173.425L271.239 173.567L271.223 173.709L271.209 173.821L271.196 173.938L271.177 174.091C271.161 174.226 271.144 174.366 271.126 174.511C271.396 174.389 271.627 174.297 271.827 174.218C272.17 174.082 272.424 173.982 272.633 173.822C273.424 173.227 274.217 172.634 275.01 172.041L275.724 171.508L275.8 171.452L276.44 170.974C279.801 168.467 283.161 165.961 286.443 163.349C290.189 160.371 293.897 157.341 297.605 154.31L297.607 154.309C300.668 151.806 303.729 149.304 306.814 146.83C309.376 144.773 312.094 144.843 313.784 146.777C315.475 148.703 315.117 151.36 312.835 153.695C312.626 153.913 312.408 154.131 312.173 154.323C311.016 155.282 309.859 156.246 308.704 157.209L308.48 157.396L308.47 157.404C305.267 160.073 302.06 162.746 298.816 165.362C295.537 168.003 292.235 170.608 288.789 173.325C287.006 174.731 285.184 176.168 283.306 177.656Z" fill="#23231A"/>
<path d="M284.29 177.801C284 177.759 283.676 177.711 283.306 177.656C285.184 176.168 287.006 174.731 288.789 173.325C292.235 170.608 295.537 168.003 298.816 165.362C302.06 162.746 305.267 160.073 308.47 157.404L308.48 157.396L308.704 157.209C309.859 156.246 311.016 155.282 312.173 154.323C312.408 154.131 312.626 153.913 312.835 153.695C315.117 151.36 315.475 148.703 313.784 146.777C312.094 144.843 309.376 144.773 306.814 146.83C303.729 149.304 300.668 151.806 297.607 154.309L297.605 154.31C293.897 157.341 290.189 160.371 286.443 163.349C283.161 165.961 279.801 168.467 276.44 170.974L275.8 171.452L275.724 171.508L275.01 172.041C274.217 172.634 273.424 173.227 272.633 173.822C272.424 173.982 272.17 174.082 271.827 174.218C271.627 174.297 271.396 174.389 271.126 174.511C271.144 174.366 271.161 174.226 271.177 174.091L271.196 173.938L271.209 173.821L271.223 173.709L271.239 173.567L271.256 173.425L271.272 173.288L271.277 173.242L271.284 173.18L271.286 173.162L271.296 173.078L271.318 172.891L271.334 172.758L271.336 172.737L271.338 172.725L271.351 172.61L271.36 172.54C271.391 172.287 271.422 172.044 271.457 171.801C271.68 170.2 271.911 168.6 272.142 166.998C272.704 163.109 273.265 159.217 273.722 155.316C273.923 153.617 273.783 151.796 273.365 150.141C272.877 148.215 271.378 147.074 269.296 147.126C267.327 147.178 266.055 148.328 265.419 150.132C265.176 150.828 265.067 151.581 264.959 152.326C264.947 152.411 264.935 152.496 264.922 152.58C264.553 155.054 264.185 157.528 263.817 160.002L263.801 160.109L263.799 160.119L263.699 160.792L263.481 162.258L263.474 162.305L263.378 162.95L263.199 164.152C262.33 169.987 261.457 175.823 260.566 181.655C260.47 182.274 260.095 182.988 259.616 183.389C257.948 184.784 256.257 186.153 254.565 187.523L252 190.508C250.713 191.969 253 196 255 195C257 194 258.5 193 258.5 193L270.385 187.171C271.082 186.648 272.293 186.57 273.234 186.648C279.031 187.131 284.831 187.696 290.62 188.26L292.046 188.399C292.579 188.451 293.113 188.537 293.646 188.623C294.541 188.768 295.437 188.912 296.332 188.896C298.877 188.852 300.767 187.223 301.072 185.088C301.36 183.041 300.149 180.967 297.657 180.34C294.946 179.66 292.187 179.174 289.43 178.687C288.297 178.488 287.162 178.287 286.034 178.074C285.552 177.987 285.069 177.916 284.422 177.821L284.29 177.801Z" fill="#F3EDE4"/>
<path d="M114.391 182.907C114.681 182.865 115.005 182.817 115.375 182.762C113.497 181.274 111.675 179.837 109.892 178.431C106.447 175.714 103.144 173.109 99.8657 170.468C96.6209 167.852 93.414 165.179 90.2116 162.51L90.2017 162.502L89.9773 162.315C88.8225 161.352 87.6648 160.387 86.5088 159.429C86.2735 159.237 86.0557 159.019 85.8466 158.801C83.5638 156.466 83.2065 153.809 84.8968 151.883C86.5872 149.949 89.3056 149.879 91.8672 151.935C94.952 154.41 98.0137 156.912 101.075 159.414L101.076 159.415C104.784 162.446 108.492 165.477 112.238 168.455C115.52 171.067 118.88 173.573 122.242 176.08L122.882 176.558L122.957 176.614L123.671 177.147C124.464 177.739 125.257 178.333 126.048 178.928C126.257 179.088 126.511 179.188 126.854 179.324C127.055 179.403 127.285 179.494 127.556 179.617C127.537 179.472 127.52 179.332 127.504 179.197L127.486 179.043L127.472 178.927L127.459 178.815L127.442 178.673L127.426 178.531L127.41 178.393L127.404 178.348L127.397 178.286L127.395 178.268L127.385 178.184L127.363 177.997L127.348 177.864L127.345 177.843L127.344 177.831L127.33 177.716L127.321 177.646C127.291 177.393 127.259 177.149 127.224 176.907C127.001 175.306 126.77 173.705 126.539 172.104C125.977 168.215 125.416 164.323 124.959 160.422C124.759 158.723 124.898 156.902 125.316 155.246C125.804 153.321 127.303 152.179 129.385 152.232C131.354 152.284 132.626 153.434 133.263 155.238C133.505 155.934 133.614 156.687 133.722 157.432C133.734 157.517 133.747 157.602 133.759 157.686C134.128 160.16 134.497 162.634 134.865 165.108L134.881 165.215L134.882 165.225L134.982 165.898L135.2 167.364L135.207 167.411L135.303 168.056L135.482 169.258C136.351 175.093 137.224 180.929 138.116 186.761C138.212 187.38 138.586 188.094 139.065 188.495C140.733 189.89 142.425 191.259 144.116 192.629L146.681 195.614C147.968 197.075 145.681 201.106 143.681 200.106C141.681 199.106 140.181 198.106 140.181 198.106L128.296 192.277C127.599 191.754 126.388 191.675 125.447 191.754C119.651 192.237 113.851 192.802 108.061 193.366L106.636 193.505C106.102 193.557 105.569 193.643 105.035 193.729C104.14 193.874 103.244 194.018 102.349 194.002C99.8047 193.958 97.914 192.329 97.6091 190.194C97.3215 188.147 98.5326 186.073 101.025 185.446C103.735 184.766 106.494 184.28 109.252 183.793C110.384 183.593 111.519 183.393 112.648 183.18C113.13 183.093 113.612 183.021 114.259 182.927L114.391 182.907Z" fill="#F3EDE4"/>
<path d="M202.842 311.844C202.894 322.222 199.732 331.736 195.018 340.824C194.46 341.895 193.824 342.967 193.031 343.873C187.795 349.833 182.062 355.174 175.048 359.104C167.267 363.451 159.094 363.904 150.512 362.754C142.792 361.717 135.9 358.764 129.357 354.773C125.506 352.421 122.204 349.415 120.357 345.32C114.31 331.893 111.461 318.013 115.608 303.419C118.056 294.793 121.916 287.021 129.096 281.157C130.951 279.641 131.98 277.167 133.6 275.311C134.82 273.926 136.179 272.288 137.817 271.712C143.969 269.543 150.198 267.548 156.829 267.295C164.392 267.007 171.171 269.813 177.845 272.715C189.616 277.838 197.327 286.812 200.986 299.062C202.215 303.158 202.624 307.505 203.417 311.731C203.217 311.775 203.025 311.81 202.842 311.844ZM193.58 311.932L193.582 311.931C193.782 311.888 193.982 311.844 194.181 311.792C193.345 307.967 192.805 304.046 191.629 300.335C188.692 291.081 182.384 284.704 173.567 280.948C168.348 278.726 163.076 276.182 157.178 276.609C150.207 277.115 143.376 278.143 138.872 284.555C137.931 285.906 136.606 287.03 135.325 288.084C126.978 294.976 123.964 304.369 123.058 314.641C122.291 323.337 124.617 331.571 127.858 339.482C128.869 341.948 130.864 344.344 133.025 345.956C139.76 350.966 147.489 353.649 155.914 353.98C158.633 354.085 161.525 354.285 164.069 353.536C173.863 350.652 181.609 344.527 186.924 336.04C191.428 328.852 193.633 320.601 193.58 311.932Z" fill="#23231A"/>
<path d="M193.58 311.932L193.582 311.931C193.782 311.888 193.982 311.844 194.181 311.792C193.345 307.967 192.805 304.046 191.629 300.335C188.692 291.081 182.384 284.704 173.567 280.948C168.348 278.726 163.076 276.182 157.178 276.609C150.207 277.115 143.376 278.143 138.872 284.555C137.931 285.906 136.606 287.03 135.325 288.084C126.978 294.976 123.964 304.369 123.058 314.641C122.291 323.337 124.617 331.571 127.858 339.482C128.869 341.948 130.864 344.344 133.025 345.956C139.76 350.966 147.489 353.649 155.914 353.98C158.633 354.085 161.525 354.285 164.069 353.536C173.863 350.652 181.609 344.527 186.924 336.04C191.428 328.852 193.633 320.601 193.58 311.932Z" fill="#FFE8BC"/>
<path d="M301.212 313.613C301.194 321.359 299.696 328.033 296.454 334.307C295.234 336.668 294.084 339.064 292.847 341.425C290.556 345.816 287.323 349.354 283.35 352.325C276.519 357.431 269.244 361.674 260.81 363.329C257.063 364.061 253.099 364.297 249.3 363.965C239.341 363.103 229.966 360.445 221.715 354.311C217.253 351.001 213.934 347.158 212.365 341.826C209.987 333.723 209.29 325.594 211.66 317.342C212.557 314.206 213.176 310.991 213.986 307.819C215.563 301.624 218.316 296.004 222.272 290.968C223.771 289.06 225.008 286.925 226.611 285.113C228.911 282.517 231.299 279.972 233.904 277.698C235.83 276.017 238.295 274.954 240.291 273.324C245.231 269.29 250.885 268.367 256.993 269.003C257.525 269.055 258.056 269.151 258.579 269.125C271.988 268.463 280.823 276.078 288.534 285.697C290.861 288.598 293.196 291.517 295.261 294.602C299.242 300.535 301.63 307.026 301.212 313.613ZM291.95 313.883C292.351 308.107 289.998 302.896 286.495 298.139C281.851 291.84 277.268 285.418 270.359 281.314C268.529 280.225 266.447 279.249 264.373 278.953C260.548 278.395 256.653 278.247 252.776 278.195C251.278 278.178 249.57 278.544 248.289 279.302C241.589 283.249 235.019 287.405 231.185 294.584C230.976 294.985 230.654 295.325 230.358 295.673C226.254 300.553 223.736 306.19 222.368 312.376C221.732 315.269 221.035 318.153 220.294 321.028C218.56 327.781 219.528 334.324 221.863 340.719C222.385 342.166 223.292 343.769 224.503 344.614C228.293 347.254 232.031 350.382 236.291 351.846C245.971 355.165 255.948 356.708 265.854 352.116C271.77 349.38 277.73 346.313 281.668 341.207C287.706 333.374 292.072 324.557 291.95 313.883Z" fill="#23231A"/>
<path d="M291.95 313.883C292.351 308.107 289.998 302.896 286.495 298.139C281.851 291.84 277.268 285.418 270.359 281.314C268.529 280.225 266.447 279.249 264.373 278.953C260.548 278.395 256.653 278.247 252.776 278.195C251.278 278.178 249.57 278.544 248.289 279.302C241.589 283.249 235.019 287.405 231.185 294.584C230.976 294.985 230.654 295.325 230.358 295.673C226.254 300.553 223.736 306.19 222.368 312.376C221.732 315.269 221.035 318.153 220.294 321.028C218.56 327.781 219.528 334.324 221.863 340.719C222.385 342.166 223.292 343.769 224.503 344.614C228.293 347.254 232.031 350.382 236.291 351.846C245.971 355.165 255.948 356.708 265.854 352.116C271.77 349.38 277.73 346.313 281.668 341.207C287.706 333.374 292.072 324.557 291.95 313.883Z" fill="#FFE8BC"/>
<path d="M131.039 320.218C131.666 315.147 132.049 310.755 132.781 306.416C134.097 298.601 138.654 292.737 145.807 290.001C151.427 287.849 157.665 286.072 163.799 286.995C170.866 288.058 176.52 292.232 180.188 298.322C185.242 306.704 186.488 315.844 183.656 325.323C182.271 329.95 179.805 333.819 175.579 336.528C173.767 337.687 172.321 339.491 170.9 341.155C166.239 346.609 160.349 347.96 153.779 345.869C148.97 344.335 144.335 342.235 139.699 340.196C136.301 338.707 134.106 335.936 133.295 332.337C132.346 328.155 131.709 323.886 131.039 320.218Z" fill="#23231A"/>
<path d="M226.794 328.085C227.7 320.183 229.513 311.165 236.187 303.776C238.766 300.927 240.7 297.494 242.896 294.305C248.611 285.984 258.788 284.433 267.066 290.228C272.311 293.896 276.676 298.365 280.623 303.28C287.628 312.001 287.619 321.124 280.719 329.906C278.706 332.468 276.58 334.96 274.419 337.4C273.417 338.532 272.346 339.709 271.056 340.449C261.515 345.964 251.487 349.188 240.395 346.034C238.025 345.363 235.751 344.152 233.643 342.836C228.781 339.822 226.576 335.282 226.794 328.085Z" fill="#23231A"/>
</svg>
