<svg width="401" height="443" viewBox="0 0 401 443" fill="none" xmlns="http://www.w3.org/2000/svg">
<path d="M274.933 116.234C274.929 116.237 274.926 116.24 274.922 116.243L274.933 116.234ZM359.903 305.784C360.646 305.58 361.395 305.374 362.14 305.17C362.243 305.141 362.346 305.113 362.45 305.085C362.68 305.022 362.909 304.958 363.139 304.895M355.055 333.558C355.045 333.556 355.035 333.554 355.026 333.552C354.756 333.499 354.486 333.446 354.217 333.392C354.487 333.446 354.758 333.499 355.026 333.552L355.055 333.558ZM349.163 151.097C349.166 151.099 349.168 151.102 349.171 151.105L349.163 151.097ZM62.224 199.129C62.0052 198.958 61.7864 198.787 61.5676 198.615C61.7851 198.786 62.0065 198.959 62.224 199.129ZM75.4917 163.61C75.4984 163.585 75.5051 163.559 75.5118 163.533C75.5054 163.558 75.4981 163.586 75.4917 163.61ZM55.1499 192.797C55.1538 192.783 55.1587 192.765 55.1626 192.751C55.1584 192.767 55.1542 192.782 55.1499 192.797Z" fill="#F3EDE4"/>
<path d="M113.107 409.767C113.107 410.94 113.11 412.047 113.113 413.108C113.114 413.259 113.114 413.411 113.115 413.56V413.562C113.122 416.086 113.128 418.355 113.099 420.623C113.064 423.211 114.057 425.328 115.774 427.202C119.599 431.358 128.573 434.878 135.021 431.288C136.075 430.696 137.225 430.251 138.384 429.876C144.239 427.96 147.236 423.952 147.907 417.826C148.439 413.008 149.388 408.277 151.924 403.921C154.311 399.825 155.679 398.841 160.306 399.965C164.81 401.063 169.28 402.3 173.741 403.572C178.829 405.027 183.996 405.968 189.276 405.532C199.801 404.652 210.327 403.668 220.817 402.5C222.377 402.326 223.98 401.176 225.243 400.104C227.892 397.83 231.308 398.257 232.867 401.376C233.208 402.057 233.373 402.833 233.537 403.606C233.596 403.881 233.655 404.156 233.721 404.426C234.033 405.738 234.328 407.054 234.623 408.37C235.325 411.503 236.027 414.634 236.954 417.696C237.494 419.491 238.696 421.32 240.108 422.558C242.843 424.954 245.858 427.062 248.908 429.049C253.29 431.915 261.306 432.055 264.495 429.24C272.45 422.244 274.053 411.492 269.636 403.354C268.503 401.263 267.832 399.25 269.401 397.194C271.091 394.99 273.339 394.38 276.101 394.876C277.338 395.103 278.863 394.911 279.987 394.362C281.082 393.829 282.069 393.082 283.06 392.332C283.591 391.93 284.124 391.527 284.674 391.156C285.839 390.368 287.016 389.599 288.193 388.83C290.504 387.32 292.814 385.811 295.025 384.16C297.482 382.33 299.852 380.291 301.874 377.999C302.977 376.756 303.918 375.366 304.858 373.977C305.841 372.526 306.823 371.074 307.99 369.792C314.699 362.395 318.167 353.534 320.363 343.993C322.994 332.553 324.31 320.912 325.277 309.254C325.913 301.639 326.253 293.876 325.495 286.304C324.867 280.051 323.511 273.866 322.155 267.683C321.684 265.535 321.213 263.387 320.772 261.237C318.69 251.095 315.135 241.554 309.437 232.815C307.845 230.367 306.398 227.827 304.96 225.281C304.864 225.112 304.768 224.941 304.672 224.772C303.632 222.929 302.591 221.086 301.499 219.275C301.185 218.753 300.166 218.413 299.469 218.404C297.994 218.38 296.518 218.415 295.043 218.45C292.866 218.501 290.691 218.553 288.526 218.413C278.209 217.733 268.224 216.505 258.623 211.538C248.89 206.502 241.441 199.724 235.769 190.636C231.761 184.214 228.798 177.453 229.155 169.664C229.243 167.869 228.458 167.433 226.829 167.634C226.351 167.693 225.872 167.75 225.394 167.808C220.288 168.421 215.2 169.032 210.484 171.406C208.419 172.443 206.319 172.313 204.611 170.535C203.112 168.976 203.165 166.771 204.297 164.384C204.925 163.068 205.334 161.552 205.413 160.097C205.522 158.115 205.535 156.131 205.549 154.145C205.56 152.482 205.572 150.818 205.639 149.154C206.057 138.471 210.274 129.288 216.87 121.072C221.532 115.269 227.221 110.668 233.285 106.373C240.343 101.372 247.183 96.0306 253.831 90.4804C256.453 88.2935 258.832 85.4443 260.383 82.4122C265.881 71.6343 268.024 60.3336 264.06 48.4665C263.188 45.87 262.308 43.2823 261.419 40.6945C260.217 37.1919 257.987 34.5345 254.963 32.3824C253.004 30.9874 251.095 29.5264 249.186 28.0656C247.172 26.5246 245.158 24.9839 243.087 23.5213C242.866 23.3649 242.644 23.2074 242.422 23.0494C240.166 21.4464 237.844 19.7965 235.298 18.8686C234.555 18.5984 233.811 18.327 233.067 18.0552C232.82 17.9648 232.571 17.8738 232.323 17.7834C224.606 14.9627 216.859 12.1313 208.906 10.2166C204.762 9.219 200.228 9.61088 195.8 9.9937C194.968 10.0656 194.14 10.1372 193.319 10.1992C190.409 10.417 187.769 12.0463 186.366 14.8345C183.526 20.463 187.22 29.2022 193.101 31.3543C195.77 32.3292 198.418 33.369 201.065 34.4086C205.277 36.0633 209.489 37.7175 213.786 39.1088C224.172 42.472 230.541 50.0087 235.664 59.0005C238.557 64.0714 238.775 69.3689 236.047 74.4921C235.944 74.6872 235.84 74.8828 235.736 75.0786C235.721 75.1066 235.706 75.1346 235.691 75.1625C233.636 79.0331 231.522 83.0139 228.607 86.1849C224.017 91.1727 219.186 95.9392 214.328 100.676C214.072 100.925 213.817 101.174 213.562 101.422C213.34 101.639 213.118 101.855 212.895 102.071C212.678 102.283 212.461 102.494 212.244 102.705C212.133 102.813 212.02 102.924 211.909 103.032C210.23 104.665 208.553 106.299 206.885 107.941C205.979 108.83 204.846 109.544 203.714 110.163C198.843 112.812 194.704 116.323 190.966 120.392C189.288 122.223 187.54 123.987 185.791 125.752C184.652 126.9 183.513 128.05 182.393 129.218C178.716 133.052 176.093 137.487 175.623 142.837C175.327 146.226 175.283 149.711 175.728 153.074C176.59 159.609 178.681 165.787 182.654 171.18C184.928 174.273 183.804 177.566 180.075 178.926C177.941 179.704 175.83 180.552 173.721 181.399L173.719 181.4C172.169 182.022 170.619 182.645 169.062 183.239C167.494 183.84 166.832 184.999 166.213 186.506C165.693 187.764 165.192 189.037 164.692 190.311C164.659 190.395 164.625 190.481 164.592 190.566C162.896 194.889 161.194 199.226 158.781 203.104C155.208 208.837 151.288 214.64 144.927 217.925C143.776 218.518 142.633 219.135 141.489 219.752C138.346 221.449 135.197 223.148 131.875 224.355C120.33 228.546 108.455 230.306 96.274 227.3C94.3484 226.821 93.5469 227.344 92.9544 229.156C91.6664 233.118 90.3485 237.069 89.0267 241.019C88.8386 241.582 88.6484 242.15 88.4601 242.712L88.4593 242.715C87.028 246.991 85.5963 251.268 84.1978 255.556C80.3467 267.388 77.3582 279.377 77.6196 291.959C77.6341 292.676 77.557 293.391 77.4797 294.107C77.418 294.679 77.3562 295.251 77.3407 295.828C77.2921 297.502 77.2318 299.177 77.1707 300.852C77.1666 300.962 77.1625 301.076 77.1585 301.187C76.9937 305.7 76.829 310.213 76.879 314.726C76.9661 323.404 78.5954 331.786 82.4378 339.671C83.9031 342.684 85.3326 345.715 86.76 348.747C86.855 348.949 86.9505 349.152 87.0455 349.354C89.6307 354.847 92.2162 360.341 95.0019 365.732C99.28 374.018 105.527 380.552 114.005 384.796C117.298 386.442 117.856 389.161 116.227 392.454C115.138 394.659 114.136 397.046 113.778 399.451C113.386 402.071 113.296 404.735 113.217 407.098C113.185 408.044 113.155 408.94 113.107 409.767Z" fill="#F3EDE4"/>
<path d="M355.055 333.558L355.068 333.56C355.403 333.626 355.737 333.692 356.071 333.758C355.74 333.692 355.4 333.626 355.068 333.56C355.064 333.559 355.06 333.558 355.055 333.558ZM285.45 177.532C284.968 177.445 284.486 177.373 283.838 177.278C283.796 177.272 283.75 177.265 283.707 177.259M288.846 178.145C287.713 177.945 286.579 177.745 285.45 177.532L288.846 178.145ZM288.846 178.145C291.603 178.631 294.362 179.118 297.073 179.797L288.846 178.145ZM297.073 179.797C299.565 180.424 300.776 182.498 300.488 184.546L297.073 179.797ZM300.488 184.546C300.184 186.68 298.293 188.31 295.749 188.353L300.488 184.546ZM295.749 188.353C294.853 188.37 293.958 188.225 293.062 188.081L295.749 188.353ZM293.062 188.081C292.529 187.995 291.995 187.909 291.462 187.857L293.062 188.081ZM291.462 187.857L290.036 187.718L291.462 187.857ZM272.651 186.105C278.447 186.588 284.247 187.153 290.036 187.718L272.651 186.105ZM272.651 186.105C271.71 186.027 270.498 186.105 269.801 186.628L272.651 186.105ZM251.916 195.457C251.916 195.457 251.978 195.515 252.09 195.619C252.963 196.429 256.87 200.037 257.682 200.447M259.127 201.185C258.961 201.1 258.793 201.014 258.626 200.929C258.542 200.886 258.458 200.843 258.374 200.8C258.346 200.786 258.319 200.772 258.292 200.758C258.088 200.654 257.885 200.55 257.682 200.447M269.322 206.232C265.884 204.639 262.504 202.911 259.127 201.185L269.322 206.232ZM269.322 206.232C270.882 206.955 272.616 207.565 274.315 207.696L269.322 206.232ZM274.315 207.696C275.752 207.811 277.191 207.932 278.629 208.053L274.315 207.696ZM151.88 195.324C157.744 186.384 159.696 177.018 157.683 166.675L151.88 195.324ZM157.683 166.675C154.494 150.251 148.378 135.065 139.15 121.15L157.683 166.675ZM139.15 121.15C137.743 119.027 136.022 117.113 134.302 115.2L139.15 121.15ZM134.302 115.2C133.509 114.317 132.715 113.435 131.954 112.533L134.302 115.2ZM131.954 112.533C131.853 112.585 131.753 112.64 131.653 112.694L131.954 112.533ZM131.653 112.694C131.631 112.706 131.609 112.718 131.587 112.73L131.653 112.694ZM131.354 113.301C131.353 113.205 131.353 113.109 131.353 113.013C131.352 112.96 131.352 112.908 131.352 112.855C131.384 112.839 131.415 112.822 131.447 112.805C131.465 112.796 131.482 112.787 131.5 112.777L131.535 112.758C131.553 112.749 131.57 112.739 131.587 112.73M131.356 113.652C131.355 113.536 131.355 113.416 131.354 113.301L131.356 113.652ZM131.356 113.652L131.358 113.922L131.356 113.652ZM131.358 113.922C131.361 114.363 131.362 114.804 131.352 115.243L131.358 113.922ZM131.352 115.243C131.32 116.868 131.31 118.496 131.3 120.124L131.352 115.243ZM131.3 120.124C131.273 124.272 131.246 128.421 130.864 132.538L131.3 120.124ZM130.864 132.538C130.612 135.291 129.296 138.053 128.007 140.58L130.864 132.538ZM128.007 140.58C127.031 142.479 125.027 143.394 122.753 143.02L128.007 140.58ZM122.753 143.02C120.444 142.636 119.172 141.033 118.658 138.916L122.753 143.02ZM118.658 138.916C116.714 130.874 110.68 126.4 104.642 121.922L118.658 138.916ZM102.626 120.418C103.028 120.722 103.432 121.023 103.836 121.324C103.894 121.367 103.952 121.41 104.01 121.453C104.13 121.542 104.25 121.632 104.37 121.721C104.459 121.787 104.553 121.856 104.642 121.922M102.626 120.418C102.571 120.38 102.476 120.393 102.303 120.417L102.626 120.418ZM102.303 120.417C102.199 120.431 102.069 120.449 101.903 120.462L102.303 120.417ZM101.903 120.462C102.007 120.738 102.12 121.003 102.23 121.262L101.903 120.462ZM102.23 121.262C102.449 121.777 102.658 122.269 102.774 122.779L102.23 121.262ZM102.774 122.779C103.052 123.973 103.343 125.165 103.634 126.356L102.774 122.779ZM103.634 126.356C104.456 129.723 105.278 133.092 105.806 136.502L103.634 126.356ZM105.806 136.502C106.198 139.038 104.56 140.928 102.556 141.373L105.806 136.502ZM102.556 141.373C100.177 141.896 98.6788 140.65 97.4938 138.75L102.556 141.373ZM97.4938 138.75C97.4475 138.675 97.4012 138.6 97.3547 138.525L97.4938 138.75ZM97.3547 138.525C96.806 137.633 96.2355 136.706 95.4724 136.023L97.3547 138.525ZM95.4724 136.023C89.7916 130.909 83.4224 126.944 75.816 125.515L95.4724 136.023ZM75.816 125.515C68.4075 124.125 60.9748 122.874 53.5395 121.624L75.816 125.515ZM53.5395 121.624C51.0061 121.198 48.4724 120.772 45.9392 120.34L53.5395 121.624ZM45.9392 120.34C45.7283 120.306 45.5025 120.35 45.213 120.406L45.9392 120.34ZM45.213 120.406C45.06 120.436 44.8891 120.469 44.6933 120.497L45.213 120.406ZM44.6933 120.497C45.2329 121.255 45.7665 121.989 46.29 122.709L44.6933 120.497ZM46.29 122.709C47.4317 124.279 48.5254 125.783 49.529 127.336L46.29 122.709ZM49.529 127.336C50.5668 128.942 51.5584 130.582 52.55 132.222L49.529 127.336ZM52.55 132.222C54.3138 135.14 56.078 138.059 58.1025 140.78L52.55 132.222ZM58.1025 140.78C58.4961 141.31 58.8861 141.844 59.2756 142.378L58.1025 140.78ZM59.2756 142.378L59.5181 142.711L59.2756 142.378ZM59.5181 142.711C63.0908 147.618 66.6812 152.549 72.7403 155.043L59.5181 142.711ZM72.7403 155.043C77.2449 156.899 77.576 158.311 75.7376 162.798L72.7403 155.043ZM75.7376 162.798C75.6417 163.034 75.577 163.283 75.5118 163.533L75.7376 162.798ZM75.5118 163.533L75.4917 163.61L75.5118 163.533ZM75.4917 163.61L75.4762 163.669L75.4917 163.61ZM75.4762 163.669C74.4655 167.782 72.3656 169.629 68.1921 169.089L75.4762 163.669ZM68.1921 169.089C65.6395 168.76 63.138 168.045 60.638 167.33L68.1921 169.089Z" fill="#F3EDE4"/>
<path fill-rule="evenodd" clip-rule="evenodd" d="M274.933 116.234L274.922 116.243C274.487 116.609 273.969 117.044 273.191 117.708C273.104 116.651 273.024 115.646 272.947 114.683L272.941 114.61L272.94 114.597C272.779 112.588 272.631 110.744 272.468 108.9C272.311 107.157 272.764 105.798 273.914 104.334C274.75 103.271 275.221 101.18 274.724 100.021C274.184 98.7577 272.433 97.4246 271.065 97.2504C269.418 97.05 267.318 97.6076 265.95 98.5835C256.375 105.397 247.67 113.308 242.39 123.886C237.18 134.315 232.083 144.936 230.001 156.629C229.896 157.248 229.103 158.128 228.528 158.215C224.477 158.842 220.399 159.348 216.321 159.748C215.833 159.792 214.788 158.973 214.779 158.537C214.64 151.532 214.561 144.544 217.436 137.905C221.593 128.321 228.458 121.141 236.884 115.164C243.95 110.154 250.833 104.883 257.656 99.5506C269.915 89.9576 274.376 76.6181 275.256 61.7276C275.761 53.2412 272.955 45.3908 270.132 37.5753C268.181 32.1733 264.818 27.9388 260.078 24.6801C258.325 23.479 256.641 22.179 254.958 20.8796C253.211 19.5303 251.464 18.1813 249.64 16.943C249.036 16.5346 248.432 16.1186 247.827 15.7017C244.793 13.6105 241.721 11.4937 238.365 10.1643C231.812 7.56175 225.082 5.38395 218.359 3.20856C216.912 2.74029 215.466 2.27214 214.021 1.79988C207.059 -0.474203 199.889 -0.343513 192.788 0.815311C180.938 2.7583 174.882 10.9398 176.625 22.7894C177.853 31.1451 181.87 37.4359 190.496 40.3286C198.547 43.0296 206.467 46.2011 214.265 49.573C217.018 50.7667 219.519 52.9101 221.636 55.0971C223.211 56.7303 224.474 58.6824 225.731 60.6257C226.178 61.3154 226.623 62.0042 227.082 62.6774C229.042 65.5439 228.955 68.4541 227.308 71.4862C224.163 77.289 220.355 82.5429 215.493 87.0301C213.882 88.5172 212.294 90.0366 210.707 91.5551C208.723 93.4525 206.739 95.3505 204.707 97.1894C202.92 98.8042 201.026 100.305 199.135 101.803C198.537 102.277 197.939 102.75 197.344 103.227C196.114 104.213 194.863 105.175 193.612 106.138C191.079 108.086 188.545 110.035 186.183 112.176C183.589 114.529 181.175 117.08 178.76 119.631C177.777 120.67 176.793 121.71 175.797 122.736C170.901 127.781 167.398 133.688 166.605 140.693C165.673 148.979 166.074 157.265 169.367 165.142C169.569 165.627 169.78 166.111 169.99 166.593C170.542 167.857 171.093 169.119 171.484 170.431C171.667 171.023 171.223 172.06 170.718 172.513C170.297 172.886 169.708 173.074 169.057 173.282C168.749 173.38 168.428 173.482 168.104 173.611C168.094 173.564 168.085 173.518 168.075 173.473C168.062 173.41 168.048 173.347 168.035 173.287C168.003 173.135 167.971 172.992 167.942 172.856C167.839 172.392 167.755 172.01 167.703 171.624C165.446 155.592 160.863 140.371 152.926 126.143C147.036 115.582 140.022 106.103 130.324 98.7665C129.235 97.9474 128.111 97.1546 126.926 96.4749C124.87 95.2987 122.709 94.9937 120.74 96.5969C118.753 98.2088 118.544 100.431 119.442 102.618C122.082 109.048 122.247 115.8 122.265 122.579C122.265 122.945 122.207 123.307 122.14 123.724C122.103 123.953 122.063 124.198 122.03 124.47C121.865 124.364 121.724 124.282 121.601 124.21C121.38 124.082 121.221 123.989 121.097 123.86C112.245 114.572 101.362 108.255 89.9833 102.679C88.7721 102.077 87.4304 101.65 86.0973 101.433C83.7448 101.041 81.6449 102.156 80.7911 104.099C79.8414 106.268 80.5732 108.037 82.0719 109.71C84.5878 112.521 87.0343 115.393 89.4839 118.27L89.9484 118.815C90.2642 119.185 90.5123 119.615 90.7606 120.045C90.8684 120.232 90.9763 120.419 91.0898 120.601C90.1541 120.714 89.5097 120.491 88.873 120.271C88.822 120.253 88.771 120.235 88.7199 120.218C87.4386 119.788 86.1668 119.318 84.8952 118.849C82.0939 117.814 79.2942 116.78 76.3997 116.175C68.227 114.458 59.9671 113.108 51.6985 111.871C46.1642 111.044 40.5918 110.432 35.0203 109.819C33.487 109.651 31.9538 109.482 30.4214 109.309C27.764 109.013 25.6642 110.337 25.0368 112.533C24.4095 114.72 25.4986 116.889 27.886 118.127C28.1835 118.281 28.5003 118.402 28.8166 118.522C29.2133 118.673 29.6097 118.823 29.9684 119.042C30.2458 119.208 30.5367 119.369 30.8295 119.53C31.7597 120.043 32.709 120.566 33.3054 121.342C36.9039 126.038 40.3978 130.821 43.8133 135.657C46.0399 138.808 48.2181 141.998 50.3941 145.185C51.7256 147.136 53.0569 149.086 54.3995 151.027C55.2522 152.265 56.1507 153.475 57.0485 154.685C57.3892 155.144 57.7297 155.603 58.0677 156.063C56.8827 156.159 56.0375 155.889 55.236 155.523C53.4722 154.711 51.6994 153.889 49.9392 153.072L49.9309 153.068C46.8024 151.616 43.6743 150.164 40.5285 148.744C37.7055 147.472 35.353 147.829 33.8195 149.615C32.2512 151.445 32.408 153.963 34.0809 156.577C40.8596 167.189 49.9472 175.31 60.8384 181.505C61.3089 181.778 61.7717 182.066 62.2345 182.355C62.4659 182.499 62.6972 182.643 62.9295 182.786C62.8859 182.986 62.8424 183.186 62.8162 183.387H60.1675C58.7977 183.389 57.4267 183.378 56.0563 183.366L55.5073 183.362C52.4933 183.337 49.4807 183.321 46.4794 183.465C41.7744 183.692 39.4306 187.743 41.8964 191.394C42.0228 191.581 42.1494 191.77 42.2762 191.958C44.2297 194.863 46.2481 197.864 48.8581 200.081C55.4538 205.675 62.3196 210.989 69.3422 216.034C72.622 218.389 76.2798 220.254 79.9074 222.103C80.479 222.395 81.0499 222.686 81.6188 222.978C84.2937 224.355 84.5464 224.495 83.7099 227.457C83.6169 227.785 83.5019 228.105 83.3865 228.425C83.2965 228.676 83.2063 228.926 83.1261 229.182C82.0967 232.454 81.0629 235.726 80.0296 238.996L80.0248 239.011C77.2816 247.693 74.5386 256.375 71.869 265.079C69.804 271.797 68.8456 278.698 68.6539 285.747C68.5572 289.444 68.2682 293.138 67.9791 296.834C67.7995 299.129 67.6199 301.425 67.4864 303.721C67.3993 305.185 66.8852 305.882 65.4127 305.63C64.0012 305.388 62.5783 305.119 61.1693 304.853C60.3484 304.698 59.5261 304.543 58.7037 304.392C56.5878 304.006 54.476 303.564 52.364 303.123C47.6229 302.132 42.8809 301.141 38.0888 300.768C30.1862 300.158 22.3619 299.443 14.6074 297.727C11.2878 296.995 7.84614 296.681 4.43937 296.498C2.03459 296.368 0.28329 298.128 0.0306137 300.289C-0.213349 302.354 1.01518 304.244 3.20213 304.994C3.84789 305.211 4.53722 305.319 5.22125 305.427C5.44046 305.461 5.65951 305.496 5.87701 305.534C6.4883 305.641 7.1068 305.737 7.72402 305.831C7.97377 305.869 8.22336 305.906 8.47225 305.943C10.1643 306.196 11.856 306.449 13.5096 306.858C21.0027 308.705 28.6091 309.394 36.294 309.925C40.7499 310.23 45.1748 311.084 49.5972 311.938C51.3749 312.281 53.1522 312.624 54.931 312.931C56.3056 313.169 57.6751 313.436 59.0444 313.703C61.2422 314.131 63.4395 314.559 65.6567 314.865C67.0943 315.057 67.6258 315.528 67.7303 316.922C67.7695 317.453 67.8065 317.987 67.8433 318.519C68.0272 321.178 68.2111 323.839 68.6975 326.445C69.1331 328.789 68.3228 329.451 66.1881 329.895C59.4966 331.298 52.8312 332.858 46.1832 334.47C43.591 335.094 41.0074 335.776 38.4288 336.458L38.4262 336.458C35.5728 337.212 32.7192 337.966 29.8464 338.643C27.0565 339.297 24.2411 339.888 21.4319 340.477C18.216 341.152 14.9996 341.827 11.8105 342.599C8.87427 343.313 7.4802 345.605 8.04654 347.957C8.60417 350.301 10.8695 351.651 13.8145 351.164C17.4914 350.545 21.1421 349.796 24.7841 349.02C25.8031 348.802 26.8225 348.585 27.8421 348.368C33.5093 347.16 39.1823 345.951 44.824 344.629C53.11 342.686 61.3612 340.621 69.6123 338.547C71.2939 338.12 72.0694 338.678 72.6967 340.238C74.4567 344.603 76.3387 348.924 78.273 353.22C78.8132 354.413 78.3863 354.928 77.515 355.668C75.535 357.355 73.6084 359.101 71.6812 360.847C70.9115 361.544 70.1417 362.241 69.3684 362.935C68.8367 363.414 68.3133 363.911 67.7928 364.404C66.6598 365.478 65.5271 366.552 64.28 367.483C61.6921 369.413 59.0724 371.306 56.4554 373.197C53.0376 375.667 49.6204 378.136 46.2703 380.692C43.7561 382.602 41.4931 384.85 39.2429 387.086L38.8817 387.444C38.0453 388.272 37.4092 389.422 37.0346 390.537C36.4247 392.341 36.8603 394.04 38.4635 395.216C40.0493 396.384 41.7657 396.314 43.3602 395.234C43.8572 394.897 44.2919 394.472 44.7267 394.047C45.0007 393.779 45.2748 393.511 45.5646 393.265C46.2692 392.671 46.9627 392.058 47.6551 391.446C49.2997 389.992 50.9442 388.539 52.7528 387.331C62.0059 381.171 71.0064 374.741 78.6825 366.603C79.5393 365.699 80.5421 364.934 81.5624 364.155C82.046 363.786 82.5339 363.414 83.0129 363.022C83.1794 363.233 83.3214 363.399 83.4354 363.533C83.6292 363.76 83.752 363.903 83.8232 364.067C88.4498 374.776 95.15 383.802 104.943 390.381C105.466 390.729 105.71 391.94 105.614 392.681C105.493 393.603 105.279 394.518 105.065 395.43C104.774 396.673 104.485 397.912 104.429 399.163C104.171 404.997 104.047 410.832 103.923 416.666C103.892 418.124 103.861 419.583 103.828 421.042C103.715 425.973 105.728 430.042 109.004 433.571C115.451 440.524 128.712 444.985 138.523 439.844C139.665 439.243 140.884 438.781 142.095 438.337C151 435.096 155.862 428.753 156.969 419.377C157.197 417.406 157.631 415.459 158.065 413.511C158.21 412.859 158.356 412.207 158.493 411.553C158.859 409.828 159.783 409.192 161.63 409.767C163.728 410.423 165.851 410.996 167.973 411.569C169.376 411.948 170.778 412.327 172.173 412.729C178.376 414.524 184.719 415.274 191.132 414.733C201.204 413.897 211.268 412.886 221.322 411.841L221.691 411.802C223.516 411.612 224.457 411.514 225.061 411.919C225.705 412.35 225.967 413.354 226.507 415.422C226.581 415.707 226.656 415.993 226.73 416.28C227.886 420.736 229.067 425.292 232.71 428.387C236.475 431.584 240.581 434.388 244.667 437.179C244.968 437.385 245.27 437.591 245.571 437.797C246.912 438.711 248.62 439.269 250.232 439.565C263.153 441.961 269.479 439.513 275.953 430.033C280.902 422.793 282.026 414.942 280.614 406.526L280.597 406.425C280.404 405.318 280.264 404.516 281.66 403.764C284.176 402.399 286.581 400.819 288.984 399.24C289.618 398.824 290.251 398.408 290.887 397.996C291.226 397.775 291.565 397.556 291.904 397.336C294.301 395.782 296.694 394.23 299.007 392.559C299.647 392.098 300.307 391.645 300.966 391.194L301.143 391.073C303.45 389.496 305.773 387.908 307.52 385.85C311.163 381.568 314.471 376.995 317.776 372.429C318.66 371.207 319.542 369.988 320.432 368.772C321.26 367.64 321.818 367.239 323.133 368.128C325.471 369.702 327.892 371.195 330.291 372.675L330.293 372.676C330.928 373.068 331.562 373.459 332.195 373.852C338.494 377.764 344.289 382.251 349.055 388.019C351.18 390.581 353.55 392.986 356.077 395.155C358.369 397.124 361.218 396.819 362.83 394.894C364.381 393.038 364.084 390.494 362.037 388.333C361.403 387.661 360.752 387.006 360.101 386.35C358.819 385.059 357.538 383.769 356.4 382.365C350.719 375.342 343.679 369.984 336.037 365.322C334.285 364.254 332.549 363.154 330.817 362.055C329.597 361.282 328.377 360.509 327.15 359.746C326.017 359.049 325.791 358.23 326.166 356.879C327.655 351.469 329.093 346.032 330.322 340.56C330.749 338.634 331.367 338.042 333.354 338.469C348.584 341.719 363.832 344.89 379.079 348.053C381.388 348.532 383.715 348.968 386.05 349.212C389.038 349.526 391.182 348.079 391.643 345.701C392.114 343.261 390.528 341.013 387.531 340.307C382.138 339.044 376.718 337.859 371.281 336.77C365.88 335.689 360.475 334.625 355.068 333.56L355.055 333.558L355.026 333.552L354.217 333.392C347.533 332.076 340.841 330.758 334.164 329.407C333.589 329.294 332.735 328.327 332.77 327.822C333.127 323.047 333.606 318.281 334.181 313.524C334.242 313.018 335.044 312.356 335.628 312.19C336.798 311.862 337.99 311.6 339.176 311.339C340.284 311.095 341.391 310.851 342.485 310.552C348.269 308.979 354.049 307.392 359.829 305.804L359.848 305.799L359.866 305.794L359.884 305.789L359.903 305.784L362.14 305.17L362.45 305.085C370.231 302.948 378.013 300.815 385.806 298.72C387.797 298.185 389.827 297.799 391.857 297.413C393.266 297.145 394.674 296.877 396.07 296.559C398.849 295.923 400.409 293.954 400.182 291.61C399.947 289.18 397.891 287.463 394.954 287.629C392.715 287.758 390.483 288.194 388.277 288.625L388.202 288.639C375.639 291.077 363.398 294.753 351.165 298.426C347.093 299.649 343.023 300.871 338.939 302.049C338.209 302.26 337.467 302.446 336.744 302.627C336.422 302.707 336.105 302.787 335.793 302.868C334.678 272.015 329.206 242.705 310.378 217.001C311.003 216.837 311.56 216.698 312.062 216.573L312.067 216.572L312.078 216.57C312.974 216.347 313.715 216.163 314.438 215.93C315.36 215.634 316.307 215.375 317.256 215.119L317.436 215.07C319.834 214.424 322.236 213.775 324.284 212.549C330.139 209.046 335.776 205.126 341.152 200.926C343.151 199.369 344.916 197.521 346.684 195.671C348.122 194.166 349.561 192.659 351.128 191.307C354.997 187.97 357.977 184.005 360.608 179.71C362.655 176.373 362.812 174.038 361.078 172.182C359.336 170.309 357.219 170.413 353.594 172.304C348.445 174.987 343.234 174.325 337.527 172.53C337.85 172.319 338.118 172.131 338.349 171.969C338.754 171.686 339.056 171.474 339.383 171.319C353.184 164.697 360.46 153.257 363.492 138.689C363.954 136.45 363.091 134.402 361.27 133.409C359.44 132.407 357.271 132.756 355.633 134.385C355.398 134.62 355.199 134.896 355 135.171C354.749 135.519 354.499 135.865 354.178 136.128C352.99 137.111 351.764 138.056 350.538 139.002C349.993 139.422 349.448 139.843 348.906 140.266C348.75 140.083 348.601 139.892 348.445 139.7C348.518 139.519 348.588 139.334 348.657 139.151C348.8 138.772 348.942 138.394 349.124 138.036C350.152 136.034 351.192 134.04 352.233 132.046C354.423 127.851 356.612 123.657 358.674 119.399C361.932 112.69 365.6 106.399 372.057 102.165C373.773 101.041 374.435 99.1498 373.538 97.1197C372.614 95.0199 370.785 94.4187 368.633 94.6365C368.314 94.6691 367.995 94.7015 367.676 94.7338C365.353 94.9695 363.027 95.2056 360.721 95.5426C340.603 98.4528 321.33 103.811 304.104 115.112C304.062 115.138 303.979 115.098 303.765 114.994C303.626 114.927 303.43 114.832 303.155 114.711C303.826 113.792 304.479 112.873 305.127 111.96C306.649 109.817 308.144 107.71 309.794 105.737C311.946 103.175 312.626 101.276 311.441 99.2282C310.195 97.0674 307.677 96.3094 304.575 97.3898C301.63 98.4092 298.737 99.5768 295.862 100.779C289.375 103.492 284.237 108.048 279.1 112.602C277.868 113.694 276.636 114.786 275.386 115.853C275.239 115.977 275.091 116.102 274.933 116.234ZM113.113 413.108C113.11 412.047 113.107 410.94 113.107 409.767C113.155 408.94 113.185 408.044 113.217 407.098C113.296 404.735 113.386 402.071 113.778 399.451C114.136 397.046 115.138 394.659 116.227 392.454C117.856 389.161 117.298 386.442 114.005 384.796C105.527 380.552 99.28 374.018 95.0019 365.732C92.2162 360.341 89.6307 354.847 87.0455 349.354L86.76 348.747C85.3326 345.715 83.9031 342.684 82.4378 339.671C78.5954 331.786 76.9661 323.404 76.879 314.726C76.829 310.213 76.9937 305.7 77.1585 301.187L77.1707 300.852C77.2318 299.177 77.2921 297.502 77.3407 295.828C77.3562 295.251 77.418 294.679 77.4797 294.107C77.557 293.391 77.6341 292.676 77.6196 291.959C77.3582 279.377 80.3467 267.388 84.1978 255.556C85.596 251.269 87.0283 246.99 88.4593 242.715L88.4601 242.712L89.0267 241.019C90.3485 237.069 91.6664 233.118 92.9544 229.156C93.5469 227.344 94.3484 226.821 96.274 227.3C108.455 230.306 120.33 228.546 131.875 224.355C135.197 223.148 138.346 221.449 141.489 219.752C142.633 219.135 143.776 218.518 144.927 217.925C151.288 214.64 155.208 208.837 158.781 203.104C161.194 199.226 162.896 194.889 164.592 190.566L164.692 190.311C165.192 189.037 165.693 187.764 166.213 186.506C166.832 184.999 167.494 183.84 169.062 183.239C170.619 182.645 172.169 182.022 173.719 181.4L173.721 181.399C175.83 180.552 177.941 179.704 180.075 178.926C183.804 177.566 184.928 174.273 182.654 171.18C178.681 165.787 176.59 159.609 175.728 153.074C175.283 149.711 175.327 146.226 175.623 142.837C176.093 137.487 178.716 133.052 182.393 129.218C183.513 128.05 184.652 126.9 185.791 125.752C187.54 123.987 189.288 122.223 190.966 120.392C194.704 116.323 198.843 112.812 203.714 110.163C204.846 109.544 205.979 108.83 206.885 107.941C208.553 106.299 210.23 104.665 211.909 103.032L212.244 102.705L212.895 102.071L213.562 101.422L214.328 100.676C219.186 95.9392 224.017 91.1727 228.607 86.1849C231.522 83.0139 233.636 79.0331 235.691 75.1625L235.736 75.0786C235.84 74.8828 235.944 74.6872 236.047 74.4921C238.775 69.3689 238.557 64.0714 235.664 59.0005C230.541 50.0087 224.172 42.472 213.786 39.1088C209.489 37.7175 205.277 36.0633 201.065 34.4086C198.418 33.369 195.77 32.3292 193.101 31.3543C187.22 29.2022 183.526 20.463 186.366 14.8345C187.769 12.0463 190.409 10.417 193.319 10.1992C194.14 10.1372 194.968 10.0656 195.8 9.9937C200.228 9.61088 204.762 9.219 208.906 10.2166C216.859 12.1313 224.606 14.9627 232.323 17.7834L233.067 18.0552C233.811 18.327 234.555 18.5984 235.298 18.8686C237.844 19.7965 240.166 21.4464 242.422 23.0494C242.644 23.2074 242.866 23.3649 243.087 23.5213C245.158 24.9839 247.172 26.5246 249.186 28.0656C251.095 29.5264 253.004 30.9874 254.963 32.3824C257.987 34.5345 260.217 37.1919 261.419 40.6945C262.308 43.2823 263.188 45.87 264.06 48.4665C268.024 60.3336 265.881 71.6343 260.383 82.4122C258.832 85.4443 256.453 88.2935 253.831 90.4804C247.183 96.0306 240.343 101.372 233.285 106.373C227.221 110.668 221.532 115.269 216.87 121.072C210.274 129.288 206.057 138.471 205.639 149.154C205.572 150.818 205.56 152.482 205.549 154.145C205.535 156.131 205.522 158.115 205.413 160.097C205.334 161.552 204.925 163.068 204.297 164.384C203.165 166.771 203.112 168.976 204.611 170.535C206.319 172.313 208.419 172.443 210.484 171.406C215.2 169.032 220.288 168.421 225.394 167.808C225.872 167.75 226.351 167.693 226.829 167.634C228.458 167.433 229.243 167.869 229.155 169.664C228.798 177.453 231.761 184.214 235.769 190.636C241.441 199.724 248.89 206.502 258.623 211.538C268.224 216.505 278.209 217.733 288.526 218.413C290.691 218.553 292.866 218.501 295.043 218.45C296.518 218.415 297.994 218.38 299.469 218.404C300.166 218.413 301.185 218.753 301.499 219.275C302.591 221.086 303.632 222.929 304.672 224.772L304.96 225.281C306.398 227.827 307.845 230.367 309.437 232.815C315.135 241.554 318.69 251.095 320.772 261.237C321.213 263.387 321.684 265.535 322.155 267.683C323.511 273.866 324.867 280.051 325.495 286.304C326.253 293.876 325.913 301.639 325.277 309.254C324.31 320.912 322.994 332.553 320.363 343.993C318.167 353.534 314.699 362.395 307.99 369.792C306.823 371.074 305.841 372.526 304.858 373.977C303.918 375.366 302.977 376.756 301.874 377.999C299.852 380.291 297.482 382.33 295.025 384.16C292.814 385.811 290.504 387.32 288.193 388.83C287.016 389.599 285.839 390.368 284.674 391.156C284.124 391.527 283.591 391.93 283.06 392.332C282.069 393.082 281.082 393.829 279.987 394.362C278.863 394.911 277.338 395.103 276.101 394.876C273.339 394.38 271.091 394.99 269.401 397.194C267.832 399.25 268.503 401.263 269.636 403.354C274.053 411.492 272.45 422.244 264.495 429.24C261.306 432.055 253.29 431.915 248.908 429.049C245.858 427.062 242.843 424.954 240.108 422.558C238.696 421.32 237.494 419.491 236.954 417.696C236.027 414.634 235.325 411.503 234.623 408.37C234.328 407.054 234.033 405.738 233.721 404.426C233.655 404.156 233.596 403.881 233.537 403.606C233.373 402.833 233.208 402.057 232.867 401.376C231.308 398.257 227.892 397.83 225.243 400.104C223.98 401.176 222.377 402.326 220.817 402.5C210.327 403.668 199.801 404.652 189.276 405.532C183.996 405.968 178.829 405.027 173.741 403.572C169.28 402.3 164.81 401.063 160.306 399.965C155.679 398.841 154.311 399.825 151.924 403.921C149.388 408.277 148.439 413.008 147.907 417.826C147.236 423.952 144.239 427.96 138.384 429.876C137.225 430.251 136.075 430.696 135.021 431.288C128.573 434.878 119.599 431.358 115.774 427.202C114.057 425.328 113.064 423.211 113.099 420.623C113.128 418.355 113.122 416.086 113.115 413.562V413.56L113.113 413.108ZM282.723 177.113C282.723 177.113 283.416 177.216 283.707 177.259L283.838 177.278C284.486 177.373 284.968 177.445 285.45 177.532C286.579 177.745 287.713 177.945 288.846 178.145C291.603 178.631 294.362 179.118 297.073 179.797C299.565 180.424 300.776 182.498 300.488 184.546C300.184 186.68 298.293 188.31 295.749 188.353C294.853 188.37 293.958 188.225 293.062 188.081C292.529 187.995 291.995 187.909 291.462 187.857L290.036 187.718C284.247 187.153 278.447 186.588 272.651 186.105C271.71 186.027 270.498 186.105 269.801 186.628L257.916 192.457C257.916 192.457 256.416 193.457 254.416 194.457C252.416 195.457 250.129 191.427 251.416 189.965L253.981 186.981C255.673 185.611 257.364 184.241 259.032 182.847C259.511 182.446 259.886 181.731 259.982 181.113C260.874 175.28 261.746 169.444 262.615 163.609L262.794 162.408L262.89 161.762L262.897 161.715L263.115 160.249L263.215 159.577L263.217 159.566L263.233 159.459C263.601 156.985 263.969 154.511 264.338 152.038C264.351 151.953 264.363 151.868 264.375 151.784C264.483 151.038 264.592 150.286 264.835 149.589C265.471 147.786 266.743 146.635 268.712 146.583C270.795 146.531 272.293 147.672 272.781 149.598C273.199 151.253 273.339 153.074 273.138 154.773C272.682 158.674 272.12 162.566 271.559 166.456C271.328 168.057 271.097 169.658 270.873 171.258C270.838 171.501 270.807 171.744 270.776 171.997L270.768 172.067L270.754 172.182L270.752 172.194L270.75 172.215L270.734 172.349L270.712 172.536L270.703 172.619L270.7 172.637L270.693 172.7L270.688 172.745L270.672 172.883L270.655 173.024L270.639 173.166L270.626 173.278L270.612 173.395L270.593 173.548C270.577 173.683 270.56 173.823 270.542 173.968C270.812 173.846 271.043 173.755 271.243 173.675C271.586 173.54 271.84 173.439 272.049 173.28C272.84 172.684 273.633 172.091 274.426 171.498L275.14 170.965L275.216 170.909L275.856 170.432C279.217 167.925 282.577 165.418 285.859 162.807C289.606 159.829 293.314 156.798 297.022 153.767L297.023 153.766C300.084 151.264 303.145 148.761 306.23 146.287C308.792 144.231 311.51 144.3 313.201 146.235C314.891 148.16 314.534 150.818 312.251 153.153C312.042 153.371 311.824 153.588 311.589 153.78C310.433 154.739 309.275 155.704 308.12 156.666L307.896 156.853L307.886 156.861C304.684 159.531 301.477 162.203 298.232 164.819C294.954 167.46 291.651 170.065 288.205 172.782C286.422 174.188 282.723 177.113 282.723 177.113Z" fill="#F3EDE4"/>
<path d="M283.707 177.259C283.416 177.216 282.723 177.113 282.723 177.113C282.723 177.113 286.422 174.188 288.205 172.782C291.651 170.065 294.954 167.46 298.232 164.819C301.477 162.203 304.684 159.531 307.886 156.861L307.896 156.853L308.12 156.666C309.275 155.704 310.433 154.739 311.589 153.78C311.824 153.588 312.042 153.371 312.251 153.153C314.534 150.818 314.891 148.16 313.201 146.235C311.51 144.3 308.792 144.231 306.23 146.287C303.145 148.761 300.084 151.264 297.023 153.766L297.022 153.767C293.314 156.798 289.606 159.829 285.859 162.807C282.577 165.418 279.217 167.925 275.856 170.432L275.216 170.909L275.14 170.965L274.426 171.498C273.633 172.091 272.84 172.684 272.049 173.28C271.84 173.439 271.586 173.54 271.243 173.675C271.043 173.755 270.812 173.846 270.542 173.968C270.56 173.823 270.577 173.683 270.593 173.548L270.612 173.395L270.626 173.278L270.639 173.166L270.655 173.024L270.672 172.883L270.688 172.745L270.693 172.7L270.7 172.637L270.703 172.619L270.712 172.536L270.734 172.349L270.75 172.215L270.752 172.194L270.754 172.182L270.768 172.067L270.776 171.997C270.807 171.744 270.838 171.501 270.873 171.258C271.097 169.658 271.328 168.057 271.559 166.456C272.12 162.566 272.682 158.674 273.138 154.773C273.339 153.074 273.199 151.253 272.781 149.598C272.293 147.672 270.795 146.531 268.712 146.583C266.743 146.635 265.471 147.786 264.835 149.589C264.592 150.286 264.483 151.038 264.375 151.784C264.363 151.868 264.351 151.953 264.338 152.038C263.969 154.511 263.601 156.985 263.233 159.459L263.217 159.566L263.215 159.577L263.115 160.249L262.897 161.715L262.89 161.762L262.794 162.408L262.615 163.609C261.746 169.444 260.874 175.28 259.982 181.113C259.886 181.731 259.511 182.446 259.032 182.847C257.364 184.241 255.673 185.611 253.981 186.981L251.416 189.965C250.129 191.427 252.416 195.457 254.416 194.457C256.416 193.457 257.916 192.457 257.916 192.457L269.801 186.628C270.498 186.105 271.71 186.027 272.651 186.105C278.447 186.588 284.247 187.153 290.036 187.718L291.462 187.857C291.995 187.909 292.529 187.995 293.062 188.081C293.958 188.225 294.853 188.37 295.749 188.353C298.293 188.31 300.184 186.68 300.488 184.546C300.776 182.498 299.565 180.424 297.073 179.797C294.362 179.118 291.603 178.631 288.846 178.145C287.713 177.945 286.579 177.745 285.45 177.532C284.968 177.445 284.486 177.373 283.838 177.278L283.707 177.259Z" fill="#23231A"/>
<path d="M113.807 182.364C114.097 182.322 114.421 182.275 114.791 182.219C112.914 180.731 111.092 179.294 109.309 177.888C105.863 175.171 102.56 172.566 99.282 169.925C96.0372 167.309 92.8303 164.636 89.6278 161.967L89.6179 161.959L89.3936 161.772C88.2388 160.809 87.0811 159.845 85.925 158.886C85.6898 158.694 85.4719 158.476 85.2628 158.259C82.98 155.923 82.6228 153.266 84.3131 151.34C86.0034 149.406 88.7219 149.336 91.2835 151.393C94.3683 153.867 97.43 156.37 100.491 158.872L100.492 158.873C104.2 161.904 107.908 164.935 111.654 167.913C114.936 170.524 118.296 173.03 121.658 175.538L122.298 176.015L122.373 176.071L123.087 176.604C123.881 177.197 124.674 177.79 125.464 178.386C125.673 178.545 125.927 178.645 126.27 178.781C126.471 178.86 126.702 178.952 126.972 179.074C126.954 178.929 126.937 178.789 126.92 178.654L126.902 178.501L126.888 178.384L126.875 178.272L126.858 178.13L126.842 177.988L126.826 177.851L126.821 177.805L126.813 177.743L126.811 177.725L126.802 177.642L126.78 177.454L126.764 177.321L126.761 177.3L126.76 177.288L126.746 177.173L126.738 177.103C126.707 176.85 126.675 176.607 126.641 176.364C126.417 174.763 126.186 173.163 125.955 171.562C125.394 167.672 124.832 163.78 124.375 159.879C124.175 158.18 124.314 156.359 124.733 154.704C125.22 152.778 126.719 151.637 128.802 151.689C130.771 151.741 132.043 152.891 132.679 154.695C132.921 155.391 133.03 156.144 133.138 156.89C133.151 156.974 133.163 157.059 133.175 157.143C133.545 159.617 133.913 162.091 134.281 164.565L134.297 164.672L134.298 164.683L134.399 165.355L134.617 166.821L134.624 166.868L134.72 167.513L134.899 168.715C135.768 174.55 136.64 180.386 137.532 186.218C137.628 186.837 138.002 187.552 138.482 187.952C140.15 189.347 141.841 190.716 143.533 192.086L146.098 195.071C147.385 196.532 145.098 200.563 143.098 199.563C141.098 198.563 139.598 197.563 139.598 197.563L127.712 191.734C127.015 191.211 125.804 191.133 124.863 191.211C119.067 191.694 113.267 192.259 107.477 192.823L106.052 192.962C105.518 193.014 104.985 193.1 104.452 193.186C103.556 193.331 102.661 193.475 101.765 193.459C99.221 193.415 97.3303 191.786 97.0253 189.651C96.7378 187.604 97.9489 185.53 100.441 184.903C103.152 184.224 105.911 183.737 108.668 183.25C109.801 183.051 110.935 182.851 112.064 182.637C112.546 182.55 113.028 182.479 113.675 182.384L113.807 182.364Z" fill="#23231A"/>
<path d="M202.259 311.302C202.311 321.679 199.148 331.193 194.434 340.281C193.877 341.353 193.241 342.424 192.448 343.331C187.211 349.29 181.478 354.631 174.464 358.561C166.684 362.909 158.511 363.362 149.929 362.212C142.209 361.175 135.317 358.221 128.774 354.23C124.922 351.878 121.62 348.872 119.773 344.777C113.726 331.35 110.877 317.47 115.024 302.876C117.473 294.25 121.333 286.478 128.512 280.615C130.368 279.099 131.396 276.624 133.017 274.768C134.237 273.383 135.596 271.745 137.234 271.17C143.385 269 149.615 267.005 156.245 266.752C163.808 266.465 170.587 269.27 177.261 272.172C189.032 277.295 196.743 286.269 200.403 298.52C201.631 302.615 202.041 306.963 202.834 311.188C202.633 311.232 202.442 311.267 202.259 311.302ZM192.997 311.389L192.998 311.388C193.198 311.345 193.398 311.302 193.598 311.249C192.762 307.424 192.221 303.504 191.045 299.792C188.109 290.539 181.801 284.161 172.983 280.405C167.764 278.184 162.493 275.64 156.594 276.066C149.624 276.572 142.793 277.6 138.288 284.013C137.347 285.363 136.023 286.487 134.742 287.541C126.395 294.433 123.38 303.826 122.474 314.099C121.707 322.794 124.034 331.028 127.275 338.939C128.286 341.405 130.281 343.801 132.442 345.413C139.177 350.423 146.905 353.106 155.331 353.438C158.049 353.542 160.942 353.742 163.486 352.993C173.279 350.109 181.025 343.984 186.34 335.498C190.845 328.309 193.049 320.058 192.997 311.389Z" fill="#23231A"/>
<path d="M192.997 311.389L192.998 311.388C193.198 311.345 193.398 311.302 193.598 311.249C192.762 307.424 192.221 303.504 191.045 299.792C188.109 290.539 181.801 284.161 172.983 280.405C167.764 278.184 162.493 275.64 156.594 276.066C149.624 276.572 142.793 277.6 138.288 284.013C137.347 285.363 136.023 286.487 134.742 287.541C126.395 294.433 123.38 303.826 122.474 314.099C121.707 322.794 124.034 331.028 127.275 338.939C128.286 341.405 130.281 343.801 132.442 345.413C139.177 350.423 146.905 353.106 155.331 353.438C158.049 353.542 160.942 353.742 163.486 352.993C173.279 350.109 181.025 343.984 186.34 335.498C190.845 328.309 193.049 320.058 192.997 311.389Z" fill="#F3EDE4"/>
<path d="M300.628 313.07C300.61 320.816 299.112 327.49 295.871 333.764C294.651 336.125 293.501 338.521 292.263 340.882C289.972 345.274 286.739 348.811 282.766 351.782C275.935 356.888 268.66 361.131 260.226 362.787C256.479 363.519 252.515 363.754 248.716 363.423C238.757 362.56 229.382 359.903 221.131 353.769C216.67 350.458 213.35 346.615 211.782 341.283C209.403 333.18 208.706 325.051 211.076 316.8C211.973 313.663 212.592 310.448 213.402 307.276C214.979 301.081 217.733 295.462 221.688 290.426C223.187 288.517 224.424 286.383 226.027 284.57C228.328 281.974 230.715 279.43 233.32 277.156C235.246 275.474 237.712 274.411 239.707 272.782C244.647 268.748 250.302 267.824 256.41 268.46C256.941 268.512 257.473 268.608 257.995 268.582C271.405 267.92 280.24 275.535 287.95 285.154C290.277 288.056 292.612 290.974 294.677 294.059C298.659 299.992 301.046 306.483 300.628 313.07ZM291.366 313.341C291.767 307.564 289.414 302.354 285.912 297.596C281.268 291.297 276.685 284.875 269.775 280.772C267.946 279.682 265.863 278.707 263.789 278.41C259.964 277.853 256.07 277.705 252.192 277.652C250.694 277.635 248.986 278.001 247.705 278.759C241.005 282.706 234.435 286.862 230.602 294.041C230.393 294.442 230.07 294.782 229.774 295.131C225.67 300.01 223.152 305.647 221.784 311.833C221.148 314.726 220.451 317.61 219.711 320.485C217.977 327.238 218.944 333.781 221.279 340.177C221.802 341.623 222.708 343.226 223.919 344.071C227.709 346.711 231.447 349.839 235.708 351.303C245.388 354.623 255.364 356.165 265.271 351.573C271.187 348.837 277.146 345.77 281.085 340.664C287.123 332.832 291.488 324.014 291.366 313.341Z" fill="#23231A"/>
<path d="M291.366 313.341C291.767 307.564 289.414 302.354 285.912 297.596C281.268 291.297 276.685 284.875 269.775 280.772C267.946 279.682 265.863 278.707 263.789 278.41C259.964 277.853 256.07 277.705 252.192 277.652C250.694 277.635 248.986 278.001 247.705 278.759C241.005 282.706 234.435 286.862 230.602 294.041C230.393 294.442 230.07 294.782 229.774 295.131C225.67 300.01 223.152 305.647 221.784 311.833C221.148 314.726 220.451 317.61 219.711 320.485C217.977 327.238 218.944 333.781 221.279 340.177C221.802 341.623 222.708 343.226 223.919 344.071C227.709 346.711 231.447 349.839 235.708 351.303C245.388 354.623 255.364 356.165 265.271 351.573C271.187 348.837 277.146 345.77 281.085 340.664C287.123 332.832 291.488 324.014 291.366 313.341Z" fill="#F3EDE4"/>
<path d="M130.455 319.675C131.082 314.604 131.466 310.213 132.198 305.874C133.513 298.058 138.07 292.194 145.224 289.458C150.843 287.306 157.082 285.529 163.216 286.452C170.282 287.515 175.937 291.689 179.605 297.779C184.658 306.161 185.904 315.301 183.073 324.781C181.687 329.407 179.222 333.276 174.996 335.986C173.183 337.144 171.737 338.948 170.317 340.612C165.655 346.067 159.765 347.417 153.196 345.326C148.386 343.792 143.751 341.693 139.116 339.654C135.718 338.164 133.522 335.393 132.712 331.795C131.762 327.612 131.126 323.343 130.455 319.675Z" fill="#23231A"/>
<path d="M226.21 327.543C227.117 319.64 228.929 310.622 235.603 303.233C238.182 300.384 240.116 296.951 242.312 293.763C248.028 285.442 258.204 283.891 266.482 289.685C271.727 293.353 276.092 297.823 280.039 302.737C287.044 311.459 287.036 320.581 280.135 329.364C278.122 331.925 275.996 334.417 273.835 336.857C272.834 337.99 271.762 339.166 270.472 339.906C260.932 345.422 250.903 348.645 239.811 345.491C237.441 344.82 235.167 343.609 233.059 342.294C228.197 339.279 225.993 334.74 226.21 327.543Z" fill="#23231A"/>
</svg>
