<svg width="401" height="443" viewBox="0 0 401 443" fill="none" xmlns="http://www.w3.org/2000/svg">
<path d="M62.9382 182.786C62.2412 182.359 61.5528 181.914 60.8471 181.505C49.9559 175.31 40.8682 167.189 34.0896 156.577C32.4167 153.963 32.2599 151.445 33.8282 149.615C35.3617 147.829 37.7142 147.472 40.5372 148.744C45.46 150.966 50.3393 153.266 55.2447 155.523C56.0463 155.889 56.8914 156.159 58.0764 156.063C56.8478 154.39 55.5844 152.735 54.4082 151.027C50.8707 145.912 47.4117 140.737 43.822 135.657C40.4065 130.821 36.9125 126.038 33.3141 121.342C32.5299 120.322 31.1359 119.739 29.9771 119.042C29.3323 118.649 28.5656 118.475 27.8947 118.127C25.5073 116.889 24.4182 114.72 25.0455 112.533C25.6728 110.337 27.7727 109.013 30.4302 109.309C37.5312 110.111 44.6497 110.816 51.7072 111.871C59.9758 113.108 68.2357 114.459 76.4084 116.175C80.6168 117.055 84.6248 118.841 88.7286 120.218C89.4169 120.453 90.0878 120.723 91.0985 120.601C90.7239 120 90.4102 119.346 89.9571 118.815C87.3519 115.757 84.7555 112.698 82.0806 109.71C80.5819 108.037 79.8501 106.268 80.7998 104.099C81.6537 102.156 83.7535 101.041 86.106 101.433C87.439 101.65 88.7809 102.077 89.992 102.679C101.371 108.255 112.254 114.572 121.106 123.86C121.298 124.06 121.576 124.173 122.038 124.47C122.134 123.703 122.273 123.145 122.273 122.579C122.256 115.8 122.091 109.048 119.45 102.618C118.553 100.431 118.762 98.2088 120.749 96.5969C122.718 94.9938 124.879 95.2987 126.935 96.4749C128.12 97.1546 129.244 97.9474 130.333 98.7665C140.031 106.103 147.044 115.582 152.934 126.143C160.872 140.371 165.455 155.592 167.712 171.624C167.79 172.199 167.938 172.766 168.112 173.611C169.123 173.21 170.108 173.062 170.726 172.513C171.232 172.06 171.676 171.023 171.493 170.431C170.953 168.618 170.108 166.902 169.376 165.142C166.082 157.265 165.681 148.979 166.614 140.693C167.407 133.688 170.909 127.781 175.806 122.736C179.248 119.19 182.541 115.487 186.192 112.176C189.721 108.978 193.633 106.207 197.353 103.227C199.828 101.241 202.363 99.3154 204.716 97.1894C208.375 93.8785 211.878 90.3759 215.502 87.0301C220.364 82.5429 224.172 77.289 227.317 71.4862C228.964 68.4541 229.051 65.5439 227.09 62.6774C225.339 60.107 223.779 57.3102 221.645 55.0971C219.528 52.9101 217.027 50.7668 214.274 49.5731C206.476 46.2012 198.555 43.0296 190.505 40.3286C181.879 37.4359 177.862 31.1451 176.634 22.7894C174.891 10.9398 180.947 2.7583 192.796 0.815311C199.897 -0.343513 207.068 -0.474203 214.03 1.79988C222.185 4.46605 230.41 7.00152 238.374 10.1643C242.399 11.7588 246.015 14.486 249.648 16.943C253.229 19.3739 256.514 22.2318 260.086 24.6801C264.826 27.9388 268.19 32.1733 270.141 37.5753C272.964 45.3908 275.77 53.2412 275.264 61.7276C274.384 76.6181 269.923 89.9576 257.664 99.5506C250.842 104.883 243.959 110.154 236.893 115.164C228.467 121.141 221.601 128.321 217.445 137.905C214.57 144.544 214.648 151.532 214.788 158.537C214.796 158.973 215.842 159.792 216.33 159.748C220.408 159.348 224.485 158.842 228.537 158.215C229.112 158.128 229.905 157.248 230.009 156.629C232.092 144.936 237.189 134.315 242.399 123.886C247.679 113.308 256.383 105.397 265.95 98.5835C267.318 97.6076 269.418 97.05 271.065 97.2504C272.433 97.4247 274.184 98.7577 274.724 100.021C275.221 101.18 274.75 103.271 273.914 104.334C272.764 105.798 272.311 107.157 272.468 108.9C272.711 111.653 272.921 114.406 273.191 117.708C274.262 116.794 274.829 116.323 275.386 115.853C281.851 110.337 287.82 104.142 295.862 100.779C298.737 99.5768 301.63 98.4092 304.575 97.3898C307.677 96.3094 310.195 97.0674 311.441 99.2282C312.626 101.276 311.946 103.175 309.794 105.737C307.441 108.551 305.403 111.635 303.155 114.711C303.852 115.016 304.035 115.156 304.104 115.112C321.33 103.811 340.603 98.4528 360.721 95.5426C363.344 95.1593 365.992 94.9066 368.633 94.6365C370.785 94.4187 372.614 95.0199 373.538 97.1197C374.435 99.1498 373.773 101.041 372.057 102.165C365.6 106.399 361.932 112.69 358.674 119.399C355.633 125.681 352.313 131.823 349.124 138.036C348.854 138.567 348.671 139.142 348.445 139.7C348.601 139.892 348.75 140.083 348.906 140.266C350.666 138.89 352.461 137.548 354.178 136.128C354.753 135.657 355.101 134.917 355.633 134.385C357.271 132.756 359.44 132.407 361.27 133.409C363.091 134.402 363.954 136.45 363.492 138.689C360.46 153.257 353.184 164.697 339.383 171.319C338.869 171.563 338.416 171.947 337.527 172.53C343.234 174.325 348.445 174.987 353.594 172.304C357.219 170.413 359.336 170.309 361.078 172.182C362.812 174.038 362.655 176.373 360.608 179.71C357.977 184.005 354.997 187.97 351.128 191.307C347.634 194.322 344.776 198.103 341.152 200.926C335.776 205.126 330.139 209.046 324.284 212.549C321.373 214.292 317.749 214.867 314.438 215.93C313.305 216.296 312.129 216.54 310.378 217.001C329.206 242.705 334.678 272.015 335.793 302.868C336.804 302.606 337.884 302.354 338.939 302.049C355.293 297.335 371.456 291.889 388.202 288.639C390.432 288.204 392.689 287.759 394.954 287.629C397.891 287.463 399.947 289.18 400.182 291.61C400.409 293.954 398.849 295.923 396.07 296.559C392.663 297.335 389.178 297.814 385.806 298.72C371.351 302.606 356.931 306.623 342.485 310.552C340.22 311.171 337.893 311.554 335.628 312.19C335.044 312.356 334.242 313.018 334.181 313.524C333.606 318.281 333.127 323.047 332.77 327.822C332.735 328.327 333.589 329.294 334.164 329.407C346.528 331.908 358.918 334.295 371.281 336.77C376.718 337.859 382.138 339.044 387.531 340.307C390.528 341.013 392.114 343.261 391.643 345.701C391.182 348.079 389.038 349.526 386.05 349.212C383.715 348.968 381.388 348.532 379.079 348.053C363.832 344.89 348.584 341.719 333.354 338.469C331.367 338.042 330.749 338.634 330.322 340.56C329.093 346.032 327.655 351.469 326.166 356.879C325.791 358.23 326.017 359.049 327.15 359.746C330.121 361.593 333.049 363.501 336.037 365.322C343.679 369.984 350.719 375.342 356.4 382.365C358.116 384.482 360.155 386.338 362.037 388.333C364.084 390.494 364.381 393.038 362.83 394.894C361.218 396.82 358.369 397.124 356.077 395.155C353.55 392.986 351.18 390.581 349.055 388.019C344.289 382.251 338.494 377.764 332.195 373.852C329.163 371.97 326.096 370.123 323.133 368.128C321.818 367.239 321.26 367.64 320.432 368.772C316.215 374.532 312.138 380.422 307.52 385.85C305.228 388.551 301.944 390.442 299.007 392.559C296.367 394.467 293.623 396.218 290.887 397.996C287.837 399.974 284.84 402.039 281.66 403.764C280.222 404.539 280.414 405.367 280.614 406.526C282.026 414.942 280.902 422.793 275.953 430.033C269.479 439.513 263.153 441.961 250.232 439.565C248.62 439.269 246.912 438.711 245.571 437.797C241.188 434.799 236.753 431.819 232.71 428.387C228.833 425.093 227.744 420.144 226.507 415.422C225.426 411.283 225.461 411.414 221.322 411.841C211.268 412.886 201.204 413.897 191.132 414.733C184.719 415.274 178.376 414.524 172.173 412.729C168.67 411.719 165.115 410.856 161.63 409.767C159.783 409.192 158.859 409.828 158.493 411.553C157.944 414.158 157.273 416.746 156.969 419.377C155.862 428.753 151 435.096 142.095 438.337C140.884 438.781 139.665 439.243 138.523 439.844C128.712 444.985 115.451 440.524 109.004 433.571C105.728 430.042 103.715 425.973 103.828 421.042C103.994 413.749 104.107 406.456 104.429 399.163C104.525 396.994 105.327 394.859 105.614 392.681C105.71 391.94 105.466 390.729 104.943 390.381C95.15 383.802 88.4498 374.776 83.8232 364.067C83.7099 363.806 83.4659 363.597 83.0129 363.022C81.523 364.242 79.9459 365.27 78.6825 366.603C71.0064 374.741 62.0059 381.171 52.7528 387.331C50.1824 389.048 47.9432 391.261 45.5646 393.265C44.8153 393.901 44.1705 394.685 43.3602 395.234C41.7657 396.314 40.0492 396.384 38.4635 395.216C36.8603 394.04 36.4246 392.341 37.0345 390.537C37.4092 389.422 38.0453 388.272 38.8817 387.444C41.2517 385.092 43.6216 382.704 46.2703 380.692C52.1864 376.178 58.3116 371.935 64.28 367.483C66.101 366.124 67.6781 364.46 69.3684 362.935C72.0781 360.504 74.7443 358.029 77.515 355.668C78.3863 354.928 78.8132 354.414 78.273 353.22C76.3387 348.924 74.4568 344.603 72.6967 340.237C72.0694 338.678 71.2939 338.12 69.6123 338.547C61.3612 340.621 53.11 342.686 44.8239 344.629C38.1672 346.189 31.467 347.591 24.7842 349.02C21.1422 349.796 17.4913 350.545 13.8145 351.164C10.8695 351.652 8.60413 350.301 8.0465 347.957C7.48015 345.605 8.87429 343.313 11.8106 342.599C17.7876 341.152 23.8605 340.046 29.8463 338.643C35.3181 337.353 40.7201 335.785 46.1832 334.47C52.8311 332.858 59.4966 331.298 66.1881 329.895C68.3228 329.451 69.1331 328.789 68.6975 326.445C68.1137 323.317 67.9656 320.111 67.7303 316.922C67.6258 315.528 67.0943 315.057 65.6567 314.865C62.0582 314.369 58.512 313.55 54.931 312.931C48.7274 311.859 42.5412 310.352 36.294 309.925C28.6091 309.394 21.0027 308.705 13.5095 306.858C11.0089 306.24 8.42116 305.978 5.87698 305.534C4.97954 305.377 4.05602 305.281 3.20214 304.994C1.01519 304.244 -0.21335 302.354 0.0306134 300.289C0.283289 298.128 2.03465 296.368 4.43942 296.498C7.84619 296.681 11.2877 296.995 14.6074 297.727C22.3619 299.443 30.1862 300.158 38.0888 300.768C45.0156 301.308 51.8379 303.138 58.7037 304.392C60.943 304.802 63.1734 305.246 65.4127 305.63C66.8852 305.882 67.3992 305.185 67.4864 303.721C67.8349 297.727 68.4971 291.741 68.6539 285.747C68.8456 278.698 69.804 271.797 71.869 265.079C75.5459 253.09 79.3621 241.145 83.1261 229.182C83.3091 228.598 83.5443 228.041 83.7099 227.457C84.5463 224.494 84.2937 224.355 81.6188 222.978C77.4366 220.826 73.1411 218.761 69.3422 216.034C62.3196 210.989 55.4538 205.675 48.858 200.081C46.0786 197.72 43.9701 194.47 41.8964 191.394C39.4306 187.743 41.7744 183.692 46.4794 183.465C51.0276 183.247 55.6019 183.395 60.1675 183.387C61.0475 183.387 61.9362 183.387 62.8162 183.387C62.8598 183.195 62.8947 182.986 62.9382 182.786ZM113.116 409.776C113.116 413.94 113.151 417.286 113.107 420.632C113.073 423.22 114.066 425.337 115.782 427.21C119.607 431.366 128.582 434.886 135.029 431.297C136.084 430.704 137.234 430.26 138.392 429.885C144.248 427.968 147.245 423.96 147.916 417.835C148.447 413.017 149.397 408.286 151.932 403.929C154.32 399.834 155.688 398.85 160.314 399.974C164.819 401.071 169.289 402.309 173.75 403.581C178.838 405.036 184.005 405.977 189.285 405.541C199.81 404.661 210.335 403.677 220.826 402.509C222.385 402.335 223.989 401.185 225.252 400.113C227.901 397.839 231.316 398.266 232.876 401.385C233.338 402.309 233.477 403.406 233.73 404.435C234.784 408.87 235.647 413.357 236.962 417.704C237.502 419.499 238.705 421.329 240.116 422.566C242.852 424.962 245.867 427.071 248.916 429.057C253.299 431.924 261.315 432.063 264.504 429.249C272.459 422.253 274.062 411.501 269.645 403.363C268.512 401.272 267.841 399.259 269.409 397.203C271.1 394.998 273.348 394.389 276.11 394.885C277.347 395.112 278.872 394.92 279.996 394.371C281.677 393.552 283.106 392.228 284.683 391.165C288.133 388.83 291.697 386.66 295.034 384.168C297.491 382.339 299.861 380.3 301.883 378.008C304.139 375.464 305.716 372.31 307.999 369.801C314.708 362.403 318.176 353.542 320.371 344.001C323.003 332.561 324.318 320.921 325.286 309.263C325.922 301.648 326.261 293.885 325.503 286.313C324.658 277.888 322.489 269.584 320.781 261.246C318.699 251.104 315.144 241.563 309.445 232.824C306.596 228.441 304.209 223.763 301.508 219.284C301.194 218.761 300.175 218.422 299.478 218.413C295.827 218.352 292.168 218.657 288.534 218.422C278.218 217.742 268.233 216.513 258.631 211.547C248.899 206.511 241.449 199.732 235.777 190.645C231.769 184.223 228.807 177.462 229.164 169.673C229.251 167.878 228.467 167.442 226.838 167.642C221.253 168.331 215.65 168.819 210.492 171.415C208.427 172.452 206.327 172.321 204.62 170.544C203.121 168.984 203.173 166.78 204.306 164.393C204.933 163.077 205.343 161.561 205.421 160.106C205.622 156.464 205.5 152.813 205.648 149.162C206.066 138.48 210.283 129.297 216.879 121.08C221.54 115.278 227.23 110.677 233.294 106.382C240.352 101.38 247.191 96.0393 253.839 90.4891C256.462 88.3022 258.84 85.453 260.391 82.4209C265.889 71.643 268.033 60.3423 264.068 48.4752C263.197 45.8788 262.317 43.291 261.428 40.7033C260.226 37.2006 257.995 34.5432 254.972 32.3911C250.947 29.5245 247.13 26.3792 243.096 23.53C240.63 21.7874 238.104 19.8967 235.307 18.8773C226.603 15.7145 217.89 12.3861 208.915 10.2253C203.992 9.04036 198.521 9.8158 193.328 10.2079C190.418 10.4257 187.778 12.055 186.375 14.8432C183.534 20.4718 187.229 29.2109 193.11 31.363C200.028 33.8897 206.798 36.8521 213.794 39.1175C224.18 42.4807 230.549 50.0174 235.673 59.0092C238.565 64.0801 238.783 69.3776 236.056 74.5008C233.887 78.5785 231.7 82.8392 228.615 86.1937C221.68 93.7304 214.195 100.762 206.894 107.95C205.988 108.839 204.855 109.553 203.722 110.172C198.852 112.82 194.713 116.332 190.975 120.401C188.205 123.424 185.242 126.265 182.402 129.227C178.725 133.061 176.102 137.496 175.632 142.845C175.335 146.235 175.292 149.72 175.736 153.083C176.599 159.618 178.69 165.795 182.663 171.189C184.937 174.282 183.813 177.575 180.084 178.934C176.381 180.285 172.748 181.845 169.071 183.247C167.503 183.849 166.84 185.007 166.222 186.515C163.904 192.126 161.961 198.016 158.79 203.113C155.217 208.846 151.296 214.649 144.936 217.934C140.623 220.155 136.415 222.717 131.884 224.364C120.339 228.555 108.463 230.315 96.2827 227.309C94.3571 226.83 93.5555 227.352 92.9631 229.165C90.0965 237.982 87.0818 246.747 84.2065 255.565C80.3554 267.397 77.3669 279.386 77.6283 291.968C77.6544 293.257 77.3843 294.538 77.3494 295.836C77.1665 302.136 76.818 308.435 76.8877 314.735C76.9748 323.413 78.6041 331.795 82.4466 339.68C86.6636 348.349 90.5844 357.176 95.0106 365.74C99.2887 374.026 105.536 380.561 114.014 384.804C117.307 386.451 117.865 389.17 116.235 392.463C115.146 394.667 114.144 397.055 113.787 399.46C113.238 403.119 113.282 406.874 113.116 409.776ZM282.731 177.113C284.012 177.305 284.735 177.401 285.459 177.532C289.336 178.264 293.257 178.839 297.082 179.797C299.565 180.424 300.785 182.498 300.497 184.546C300.192 186.68 298.301 188.31 295.757 188.353C294.328 188.379 292.899 187.996 291.471 187.857C285.206 187.247 278.933 186.628 272.659 186.105C271.718 186.027 270.507 186.105 269.81 186.628C264.791 190.392 259.877 194.287 254.58 198.417C255.965 199.331 256.775 199.985 257.69 200.447C261.55 202.416 265.401 204.411 269.331 206.232C270.891 206.955 272.624 207.565 274.323 207.696C281.965 208.306 289.623 209.099 297.273 209.107C305.141 209.116 313.122 207.94 320.04 204.167C326.523 200.63 332.413 195.925 338.285 191.368C340.951 189.294 342.947 186.358 345.36 183.692C340.202 182.681 335.358 182.045 330.705 180.729C327.342 179.771 323.961 178.307 321.077 176.347C317.609 173.985 318.489 169.951 322.402 168.435C325.512 167.224 328.605 165.961 331.707 164.706C337.353 162.415 342.25 158.982 346.589 154.747C347.634 153.728 348.453 152.482 349.377 151.34C349.237 151.175 349.107 151.018 348.967 150.853C347.713 151.48 346.467 152.133 345.195 152.726C339.122 155.54 332.814 157.44 326.044 157.065C322.994 156.899 320.885 155.2 320.354 152.935C319.805 150.617 320.947 148.517 323.839 146.914C326.497 145.442 329.224 144.091 331.951 142.75C336.673 140.423 339.74 136.755 341.814 131.884C343.888 127.014 346.58 122.405 349.063 117.708C351.067 113.901 353.158 110.137 355.337 106.129C354.639 106.085 354.274 105.989 353.934 106.05C339.13 108.638 325.007 113.247 312.103 121.002C307.485 123.781 304.636 128.173 304.505 133.967C304.479 135.082 303.695 136.476 302.815 137.217C300.375 139.256 296.942 138.097 295.182 135.082C291.41 128.626 291.575 121.908 293.57 115.016C293.779 114.284 293.98 113.552 294.259 112.568C293.605 112.786 293.344 112.794 293.196 112.925C286.417 118.806 278.357 123.468 274.846 132.451C274.132 134.281 272.494 135.579 270.542 135.134C269.087 134.803 267.632 133.697 266.604 132.547C265.881 131.736 265.732 130.299 265.576 129.114C264.948 124.365 264.417 119.608 263.842 114.851C263.763 114.223 263.606 113.605 263.476 112.908C263.014 113.082 262.753 113.108 262.604 113.247C257.29 118.588 251.992 123.956 249.03 131.092C246.616 136.921 244.098 142.715 241.842 148.605C240.761 151.428 239.959 154.39 239.376 157.361C237.049 169.246 238.295 180.363 246.555 189.965C247.618 191.202 248.367 191.586 249.692 190.488C252.794 187.917 255.956 185.426 259.041 182.847C259.52 182.446 259.895 181.731 259.991 181.113C261.472 171.424 262.901 161.726 264.347 152.038C264.469 151.21 264.574 150.365 264.844 149.589C265.48 147.786 266.752 146.635 268.721 146.583C270.803 146.531 272.302 147.672 272.79 149.598C273.208 151.253 273.348 153.074 273.147 154.773C272.502 160.28 271.649 165.769 270.882 171.258C270.768 172.051 270.69 172.853 270.551 173.968C271.283 173.637 271.727 173.532 272.058 173.28C276.676 169.803 281.346 166.405 285.868 162.807C292.708 157.37 299.417 151.759 306.239 146.287C308.801 144.231 311.519 144.3 313.209 146.235C314.9 148.16 314.542 150.818 312.26 153.153C312.051 153.371 311.833 153.588 311.598 153.78C307.154 157.466 302.736 161.195 298.241 164.819C293.265 168.827 288.247 172.748 282.731 177.113ZM119.973 183.578C120.008 183.265 120.052 182.942 120.087 182.629C119.799 182.298 119.555 181.906 119.215 181.635C107.845 172.766 96.4831 163.87 85.0517 155.087C82.5685 153.179 81.5142 150.513 82.8996 148.23C84.2327 146.026 87.0208 145.424 89.7567 146.949C91.3425 147.829 92.8324 148.918 94.2439 150.06C106.067 159.609 117.856 169.202 129.671 178.769C130.385 179.344 131.196 179.797 132.381 180.59C132.267 178.577 132.215 177.148 132.093 175.719C131.614 170.265 131.056 164.819 130.621 159.365C130.35 156.063 131.884 153.832 134.411 153.545C136.85 153.266 138.758 155 139.421 158.128C139.56 158.799 139.656 159.478 139.726 160.158C140.17 164.314 140.71 168.47 140.998 172.635C141.337 177.697 141.433 182.768 141.703 187.83C141.73 188.353 142.104 189.041 142.531 189.329C145.616 191.368 148.752 193.328 151.889 195.324C157.753 186.384 159.704 177.018 157.692 166.675C154.503 150.251 148.386 135.065 139.159 121.15C137.103 118.048 134.376 115.391 131.962 112.533C131.762 112.637 131.561 112.751 131.361 112.855C131.361 113.648 131.379 114.45 131.361 115.243C131.248 121.011 131.405 126.805 130.873 132.538C130.62 135.291 129.305 138.053 128.015 140.58C127.039 142.479 125.035 143.394 122.761 143.02C120.452 142.636 119.18 141.033 118.666 138.916C116.505 129.976 109.291 125.446 102.634 120.418C102.547 120.357 102.356 120.427 101.911 120.462C102.225 121.289 102.608 122.013 102.783 122.779C103.846 127.345 105.1 131.884 105.815 136.502C106.207 139.038 104.569 140.928 102.565 141.373C100.186 141.896 98.6875 140.65 97.5025 138.75C96.91 137.792 96.3088 136.764 95.4811 136.023C89.8003 130.909 83.4311 126.944 75.8247 125.515C65.8919 123.651 55.9156 122.039 45.9479 120.34C45.6256 120.287 45.2683 120.418 44.702 120.497C46.4184 122.91 48.0739 125.071 49.5377 127.336C52.4217 131.797 54.9484 136.528 58.1112 140.78C62.1976 146.278 65.8919 152.22 72.749 155.043C77.2536 156.899 77.5847 158.311 75.7463 162.798C75.633 163.077 75.5633 163.373 75.4849 163.669C74.4742 167.782 72.3743 169.629 68.2008 169.089C64.6198 168.627 61.1433 167.407 57.6233 166.492C56.813 166.283 56.0288 165.961 55.2359 165.691C55.5235 166.588 55.9591 167.128 56.508 167.477C61.0126 170.282 65.4388 173.245 70.1003 175.772C73.8991 177.828 77.9942 179.327 81.9412 181.104C84.041 182.054 85.4874 183.561 85.3218 186.009C85.1563 188.458 83.5444 189.756 81.3313 190.444C80.7562 190.627 80.1463 190.723 79.5538 190.862C72.4702 192.553 65.2733 192.901 58.0241 192.649C57.0831 192.614 56.1421 192.64 55.2011 192.64C55.1488 192.84 55.0878 193.041 55.0356 193.25C55.6803 193.834 56.2989 194.461 56.9873 195.01C61.457 198.539 65.9616 202.024 70.414 205.579C79.8065 213.089 90.567 217.472 102.39 219.049C114.798 220.704 126.412 217.672 137.295 211.782C139.996 210.319 142.575 208.41 144.762 206.258C147.428 203.636 147.114 203.313 144.047 201.196C140.248 198.573 136.641 195.672 132.842 193.049C131.875 192.379 130.481 191.986 129.305 192.013C122.544 192.169 115.782 192.501 109.021 192.736C108.124 192.771 107.174 192.701 106.32 192.44C104.299 191.821 103.096 190.409 103.079 188.257C103.061 186.123 104.185 184.624 106.172 183.936C107.076 183.623 108.111 183.613 109.086 183.605L109.091 183.605C112.741 183.561 116.357 183.578 119.973 183.578Z" fill="#23231A"/>
<path d="M113.116 409.776C113.116 413.94 113.151 417.286 113.107 420.632C113.073 423.22 114.066 425.337 115.782 427.21C119.607 431.366 128.582 434.886 135.029 431.297C136.084 430.704 137.234 430.26 138.392 429.885C144.248 427.968 147.245 423.96 147.916 417.835C148.447 413.017 149.397 408.286 151.932 403.929C154.32 399.834 155.688 398.85 160.314 399.974C164.819 401.071 169.289 402.309 173.75 403.581C178.838 405.036 184.005 405.977 189.285 405.541C199.81 404.661 210.335 403.677 220.826 402.509C222.385 402.335 223.989 401.185 225.252 400.113C227.901 397.839 231.316 398.266 232.876 401.385C233.338 402.309 233.477 403.406 233.73 404.435C234.784 408.87 235.647 413.357 236.962 417.704C237.502 419.499 238.705 421.329 240.116 422.566C242.852 424.962 245.867 427.071 248.916 429.057C253.299 431.924 261.315 432.063 264.504 429.249C272.459 422.253 274.062 411.501 269.645 403.363C268.512 401.272 267.841 399.259 269.409 397.203C271.1 394.998 273.348 394.389 276.11 394.885C277.347 395.112 278.872 394.92 279.996 394.371C281.677 393.552 283.106 392.228 284.683 391.165C288.133 388.83 291.697 386.66 295.034 384.168C297.491 382.339 299.861 380.3 301.883 378.008C304.139 375.464 305.716 372.31 307.999 369.801C314.708 362.403 318.176 353.542 320.371 344.001C323.003 332.561 324.318 320.921 325.286 309.263C325.922 301.648 326.261 293.885 325.503 286.313C324.658 277.888 322.489 269.584 320.781 261.246C318.699 251.104 315.144 241.563 309.445 232.824C306.596 228.441 304.209 223.763 301.508 219.284C301.194 218.761 300.175 218.422 299.478 218.413C295.827 218.352 292.168 218.657 288.534 218.422C278.218 217.742 268.233 216.513 258.631 211.547C248.899 206.511 241.449 199.732 235.777 190.645C231.769 184.223 228.807 177.462 229.164 169.673C229.251 167.878 228.467 167.442 226.838 167.642C221.253 168.331 215.65 168.819 210.492 171.415C208.427 172.452 206.327 172.321 204.62 170.544C203.121 168.984 203.173 166.78 204.306 164.393C204.933 163.077 205.343 161.561 205.421 160.106C205.622 156.464 205.5 152.813 205.648 149.162C206.066 138.48 210.283 129.297 216.879 121.08C221.54 115.278 227.23 110.677 233.294 106.382C240.352 101.38 247.191 96.0393 253.839 90.4891C256.462 88.3022 258.84 85.453 260.391 82.4209C265.889 71.643 268.033 60.3423 264.068 48.4752C263.197 45.8788 262.317 43.291 261.428 40.7033C260.226 37.2006 257.995 34.5432 254.972 32.3911C250.947 29.5245 247.13 26.3792 243.096 23.53C240.63 21.7874 238.104 19.8967 235.307 18.8773C226.603 15.7145 217.89 12.3861 208.915 10.2253C203.992 9.04036 198.521 9.8158 193.328 10.2079C190.418 10.4257 187.778 12.055 186.375 14.8432C183.534 20.4718 187.229 29.2109 193.11 31.363C200.028 33.8897 206.798 36.8521 213.794 39.1175C224.18 42.4807 230.549 50.0174 235.673 59.0092C238.565 64.0801 238.783 69.3776 236.056 74.5008C233.887 78.5785 231.7 82.8392 228.615 86.1937C221.68 93.7304 214.195 100.762 206.894 107.95C205.988 108.839 204.855 109.553 203.722 110.172C198.852 112.82 194.713 116.332 190.975 120.401C188.205 123.424 185.242 126.265 182.402 129.227C178.725 133.061 176.102 137.496 175.632 142.845C175.335 146.235 175.292 149.72 175.736 153.083C176.599 159.618 178.69 165.795 182.663 171.189C184.937 174.282 183.813 177.575 180.084 178.934C176.381 180.285 172.748 181.845 169.071 183.247C167.503 183.849 166.84 185.007 166.222 186.515C163.904 192.126 161.961 198.016 158.79 203.113C155.217 208.846 151.296 214.649 144.936 217.934C140.623 220.155 136.415 222.717 131.884 224.364C120.339 228.555 108.463 230.315 96.2827 227.309C94.3571 226.83 93.5555 227.352 92.9631 229.165C90.0965 237.982 87.0818 246.747 84.2065 255.565C80.3554 267.397 77.3669 279.386 77.6283 291.968C77.6544 293.257 77.3843 294.538 77.3494 295.836C77.1665 302.136 76.818 308.435 76.8877 314.735C76.9748 323.413 78.6041 331.795 82.4466 339.68C86.6636 348.349 90.5844 357.176 95.0106 365.74C99.2887 374.026 105.536 380.561 114.014 384.804C117.307 386.451 117.865 389.17 116.235 392.463C115.146 394.667 114.144 397.055 113.787 399.46C113.238 403.119 113.282 406.874 113.116 409.776Z" fill="#F3EDE4"/>
<path d="M119.973 183.578C120.008 183.265 120.052 182.942 120.087 182.629C119.799 182.298 119.555 181.906 119.215 181.635C107.845 172.766 96.4831 163.87 85.0517 155.087C82.5685 153.179 81.5142 150.513 82.8996 148.23C84.2327 146.026 87.0208 145.424 89.7567 146.949C91.3425 147.829 92.8324 148.918 94.2439 150.06C106.067 159.609 117.856 169.202 129.671 178.769C130.385 179.344 131.196 179.797 132.381 180.59C132.267 178.577 132.215 177.148 132.093 175.719C131.614 170.265 131.056 164.819 130.621 159.365C130.35 156.063 131.884 153.832 134.411 153.545C136.85 153.266 138.758 155 139.421 158.128C139.56 158.799 139.656 159.478 139.726 160.158C140.17 164.314 140.71 168.47 140.998 172.635C141.337 177.697 141.433 182.768 141.703 187.83C141.73 188.353 142.104 189.041 142.531 189.329C145.616 191.368 148.752 193.328 151.889 195.324C157.753 186.384 159.704 177.018 157.692 166.675C154.503 150.251 148.386 135.065 139.159 121.15C137.103 118.048 134.376 115.391 131.962 112.533C131.762 112.637 131.561 112.751 131.361 112.855C131.361 113.648 131.379 114.45 131.361 115.243C131.248 121.011 131.405 126.805 130.873 132.538C130.62 135.291 129.305 138.053 128.015 140.58C127.039 142.479 125.035 143.394 122.761 143.02C120.452 142.636 119.18 141.033 118.666 138.916C116.505 129.976 109.291 125.446 102.634 120.418C102.547 120.357 102.356 120.427 101.911 120.462C102.225 121.289 102.608 122.013 102.783 122.779C103.846 127.345 105.1 131.884 105.815 136.502C106.207 139.038 104.569 140.928 102.565 141.373C100.186 141.896 98.6875 140.65 97.5025 138.75C96.91 137.792 96.3088 136.764 95.4811 136.023C89.8003 130.909 83.4311 126.944 75.8247 125.515C65.8919 123.651 55.9156 122.039 45.9479 120.34C45.6256 120.287 45.2683 120.418 44.702 120.497C46.4184 122.91 48.0739 125.071 49.5377 127.336C52.4217 131.797 54.9484 136.528 58.1112 140.78C62.1976 146.278 65.8919 152.22 72.749 155.043C77.2536 156.899 77.5847 158.311 75.7463 162.798C75.633 163.077 75.5633 163.373 75.4849 163.669C74.4742 167.782 72.3743 169.629 68.2008 169.089C64.6198 168.627 61.1433 167.407 57.6233 166.492C56.813 166.283 56.0288 165.961 55.2359 165.691C55.5235 166.588 55.9591 167.128 56.508 167.477C61.0126 170.282 65.4388 173.245 70.1003 175.772C73.8991 177.828 77.9942 179.327 81.9412 181.104C84.041 182.054 85.4874 183.561 85.3218 186.009C85.1563 188.458 83.5444 189.756 81.3313 190.444C80.7562 190.627 80.1463 190.723 79.5538 190.862C72.4702 192.553 65.2733 192.901 58.0241 192.649C57.0831 192.614 56.1421 192.64 55.2011 192.64C55.1488 192.84 55.0878 193.041 55.0356 193.25C55.6803 193.834 56.2989 194.461 56.9873 195.01C61.457 198.539 65.9616 202.024 70.414 205.579C79.8065 213.089 90.567 217.472 102.39 219.049C114.798 220.704 126.412 217.672 137.295 211.782C139.996 210.319 142.575 208.41 144.762 206.258C147.428 203.636 147.114 203.313 144.047 201.196C140.248 198.573 136.641 195.672 132.842 193.049C131.875 192.379 130.481 191.986 129.305 192.013C122.544 192.169 115.782 192.501 109.021 192.736C108.124 192.771 107.174 192.701 106.32 192.44C104.299 191.821 103.096 190.409 103.079 188.257C103.061 186.123 104.185 184.624 106.172 183.936C107.076 183.623 108.111 183.613 109.086 183.605L109.091 183.605C112.741 183.561 116.357 183.578 119.973 183.578Z" fill="#F3EDE4"/>
<path d="M282.731 177.113C284.012 177.305 284.735 177.401 285.459 177.532C289.336 178.264 293.257 178.839 297.082 179.797C299.565 180.424 300.785 182.498 300.497 184.546C300.192 186.68 298.301 188.31 295.757 188.353C294.328 188.379 292.899 187.996 291.471 187.857C285.206 187.247 278.933 186.628 272.659 186.105C271.718 186.027 270.507 186.105 269.81 186.628C264.791 190.392 259.877 194.287 254.58 198.417C255.965 199.331 256.775 199.985 257.69 200.447C261.55 202.416 265.401 204.411 269.331 206.232C270.891 206.955 272.624 207.565 274.323 207.696C281.965 208.306 289.623 209.099 297.273 209.107C305.141 209.116 313.122 207.94 320.04 204.167C326.523 200.63 332.413 195.925 338.285 191.368C340.951 189.294 342.947 186.358 345.36 183.692C340.202 182.681 335.358 182.045 330.705 180.729C327.342 179.771 323.961 178.307 321.077 176.347C317.609 173.985 318.489 169.951 322.402 168.435C325.512 167.224 328.605 165.961 331.707 164.706C337.353 162.415 342.25 158.982 346.589 154.747C347.634 153.728 348.453 152.482 349.377 151.34C349.237 151.175 349.107 151.018 348.967 150.853C347.713 151.48 346.467 152.133 345.195 152.726C339.122 155.54 332.814 157.44 326.044 157.065C322.994 156.899 320.885 155.2 320.354 152.935C319.805 150.617 320.947 148.517 323.839 146.914C326.497 145.442 329.224 144.091 331.951 142.75C336.673 140.423 339.74 136.755 341.814 131.884C343.888 127.014 346.58 122.405 349.063 117.708C351.067 113.901 353.158 110.137 355.337 106.129C354.639 106.085 354.274 105.989 353.934 106.05C339.13 108.638 325.007 113.247 312.103 121.002C307.485 123.781 304.636 128.173 304.505 133.967C304.479 135.082 303.695 136.476 302.815 137.217C300.375 139.256 296.942 138.097 295.182 135.082C291.41 128.626 291.575 121.908 293.57 115.016C293.779 114.284 293.98 113.552 294.259 112.568C293.605 112.786 293.344 112.794 293.196 112.925C286.417 118.806 278.357 123.468 274.846 132.451C274.132 134.281 272.494 135.579 270.542 135.134C269.087 134.803 267.632 133.697 266.604 132.547C265.881 131.736 265.732 130.299 265.576 129.114C264.948 124.365 264.417 119.608 263.842 114.851C263.763 114.223 263.606 113.605 263.476 112.908C263.014 113.082 262.753 113.108 262.604 113.247C257.29 118.588 251.992 123.956 249.03 131.092C246.616 136.921 244.098 142.715 241.842 148.605C240.761 151.428 239.959 154.39 239.376 157.361C237.049 169.246 238.295 180.363 246.555 189.965C247.618 191.202 248.367 191.586 249.692 190.488C252.794 187.917 255.956 185.426 259.041 182.847C259.52 182.446 259.895 181.731 259.991 181.113C261.472 171.424 262.901 161.726 264.347 152.038C264.469 151.21 264.574 150.365 264.844 149.589C265.48 147.786 266.752 146.635 268.721 146.583C270.803 146.531 272.302 147.672 272.79 149.598C273.208 151.253 273.348 153.074 273.147 154.773C272.502 160.28 271.649 165.769 270.882 171.258C270.768 172.051 270.69 172.853 270.551 173.968C271.283 173.637 271.727 173.532 272.058 173.28C276.676 169.803 281.346 166.405 285.868 162.807C292.708 157.37 299.417 151.759 306.239 146.287C308.801 144.231 311.519 144.3 313.209 146.235C314.9 148.16 314.542 150.818 312.26 153.153C312.051 153.371 311.833 153.588 311.598 153.78C307.154 157.466 302.736 161.195 298.241 164.819C293.265 168.827 288.247 172.748 282.731 177.113Z" fill="#F3EDE4"/>
<path d="M202.267 311.31C202.319 321.688 199.157 331.202 194.443 340.29C193.885 341.361 193.249 342.433 192.456 343.339C187.22 349.299 181.487 354.64 174.473 358.57C166.692 362.917 158.519 363.37 149.937 362.22C142.217 361.184 135.326 358.23 128.782 354.239C124.931 351.887 121.629 348.881 119.782 344.786C113.735 331.359 110.886 317.479 115.033 302.885C117.481 294.259 121.341 286.487 128.521 280.623C130.377 279.107 131.405 276.633 133.025 274.777C134.245 273.392 135.604 271.754 137.242 271.179C143.394 269.009 149.623 267.014 156.254 266.761C163.817 266.474 170.596 269.279 177.27 272.181C189.041 277.304 196.752 286.278 200.411 298.529C201.64 302.624 202.049 306.971 202.842 311.197C202.642 311.232 202.45 311.267 202.267 311.31ZM193.005 311.389C193.206 311.345 193.406 311.302 193.606 311.25C192.77 307.425 192.23 303.504 191.054 299.792C188.117 290.539 181.809 284.161 172.992 280.406C167.773 278.184 162.501 275.64 156.603 276.067C149.632 276.572 142.801 277.6 138.297 284.013C137.356 285.363 136.031 286.487 134.75 287.542C126.403 294.433 123.389 303.826 122.483 314.099C121.716 322.794 124.042 331.028 127.283 338.939C128.294 341.405 130.289 343.801 132.45 345.413C139.185 350.423 146.914 353.107 155.339 353.438C158.058 353.542 160.95 353.743 163.494 352.993C173.288 350.109 181.034 343.984 186.349 335.498C190.853 328.309 193.058 320.058 193.005 311.389Z" fill="#23231A"/>
<path d="M300.645 313.071C300.628 320.816 299.129 327.49 295.888 333.764C294.668 336.125 293.518 338.521 292.281 340.882C289.989 345.274 286.757 348.811 282.784 351.782C275.953 356.888 268.677 361.131 260.243 362.787C256.497 363.519 252.532 363.754 248.733 363.423C238.774 362.56 229.399 359.903 221.148 353.769C216.687 350.458 213.367 346.615 211.799 341.283C209.42 333.18 208.723 325.051 211.093 316.8C211.991 313.663 212.609 310.448 213.42 307.276C214.997 301.081 217.75 295.462 221.706 290.426C223.204 288.517 224.442 286.383 226.045 284.57C228.345 281.974 230.732 279.43 233.338 277.156C235.263 275.474 237.729 274.411 239.724 272.782C244.664 268.748 250.319 267.824 256.427 268.46C256.958 268.512 257.49 268.608 258.013 268.582C271.422 267.92 280.257 275.535 287.968 285.154C290.294 288.056 292.629 290.974 294.694 294.059C298.667 299.992 301.055 306.484 300.645 313.071ZM291.383 313.341C291.784 307.564 289.432 302.354 285.929 297.596C281.285 291.297 276.702 284.875 269.793 280.772C267.963 279.682 265.88 278.707 263.807 278.41C259.982 277.853 256.087 277.705 252.21 277.652C250.711 277.635 249.003 278.001 247.723 278.759C241.022 282.706 234.453 286.862 230.619 294.041C230.41 294.442 230.088 294.782 229.791 295.131C225.688 300.01 223.17 305.647 221.802 311.833C221.166 314.726 220.469 317.61 219.728 320.485C217.994 327.238 218.961 333.781 221.296 340.177C221.819 341.623 222.725 343.226 223.936 344.071C227.726 346.711 231.464 349.839 235.725 351.303C245.405 354.623 255.381 356.165 265.288 351.573C271.204 348.837 277.164 345.77 281.102 340.664C287.131 332.84 291.497 324.014 291.383 313.341Z" fill="#23231A"/>
<path d="M130.472 319.675C131.1 314.604 131.483 310.213 132.215 305.874C133.531 298.058 138.087 292.194 145.241 289.458C150.861 287.306 157.099 285.529 163.233 286.452C170.299 287.515 175.954 291.689 179.622 297.779C184.676 306.161 185.922 315.301 183.09 324.781C181.705 329.407 179.239 333.276 175.013 335.986C173.201 337.144 171.754 338.948 170.334 340.612C165.673 346.066 159.783 347.417 153.213 345.326C148.404 343.792 143.768 341.693 139.133 339.654C135.735 338.164 133.539 335.393 132.729 331.795C131.771 327.612 131.135 323.343 130.472 319.675Z" fill="#23231A"/>
<path d="M226.228 327.543C227.134 319.64 228.946 310.622 235.62 303.233C238.199 300.384 240.134 296.951 242.329 293.763C248.045 285.442 258.222 283.891 266.499 289.685C271.744 293.353 276.11 297.823 280.057 302.737C287.062 311.459 287.053 320.581 280.152 329.364C278.14 331.925 276.014 334.417 273.853 336.857C272.851 337.989 271.779 339.166 270.49 339.906C260.949 345.422 250.92 348.645 239.829 345.491C237.459 344.82 235.185 343.609 233.076 342.294C228.206 339.279 226.01 334.748 226.228 327.543Z" fill="#23231A"/>
</svg>
