<svg width="580" height="139" viewBox="0 0 580 139" fill="none" xmlns="http://www.w3.org/2000/svg">
<path d="M377.203 26.9032C377.203 21.3032 377.203 15.8032 377.203 10.2032C377.203 4.90323 381.003 0.703227 386.303 0.203227C391.903 -0.296773 397.503 0.00322676 402.703 2.50323C408.903 5.60323 412.403 10.6032 412.303 17.4032C412.303 22.8032 410.803 28.2032 410.503 33.6032C410.303 37.7032 410.703 41.8032 411.303 45.8032C411.603 47.9032 413.303 48.6032 415.503 47.9032C418.603 46.9032 421.803 46.1032 424.903 45.3032C435.503 42.5032 445.703 43.1032 455.603 48.1032C465.103 52.9032 472.503 59.8032 478.103 68.7032C484.103 78.3032 484.503 88.7032 480.503 99.1032C476.203 110.203 463.903 116.503 452.503 113.303C449.203 112.403 445.903 110.103 443.503 107.603C437.603 101.503 435.203 93.7032 433.203 85.6032C432.303 81.7032 430.303 77.6032 427.703 74.8032C422.903 69.8032 417.003 72.0032 416.003 78.9032C415.003 86.2032 415.203 93.8032 413.803 101.003C412.703 106.903 410.803 113.903 408.103 119.203C403.103 127.003 394.903 124.203 392.203 122.603C385.603 117.803 385.703 109.303 384.903 100.703C383.003 81.1032 380.503 61.7032 378.303 42.1032C377.803 37.1032 377.703 32.0032 377.403 26.9032C377.403 26.9032 377.303 26.9032 377.203 26.9032Z" fill="#F3EDE4"/>
<path d="M188.003 54.5032C187.603 75.9032 182.903 93.7032 173.303 112.403C170.103 118.703 164.003 122.903 157.903 127.403C157.103 128.003 156.303 128.503 155.503 128.903C142.903 135.303 131.003 139.603 116.903 138.203C110.203 137.603 103.403 135.303 97.2033 132.503C88.2033 128.403 87.0033 121.003 93.4033 113.603C100.703 105.303 110.703 108.503 121.903 109.203C134.403 110.003 145.603 106.803 154.303 98.3032C157.203 95.5032 159.103 91.7032 159.303 87.6032C159.503 84.3032 158.603 81.2032 156.303 79.5032C147.103 72.7032 136.303 70.6032 125.503 68.1032C118.903 66.6032 112.503 64.5032 106.203 62.1032C104.303 61.4032 102.603 58.6032 102.103 56.5032C100.203 48.2032 106.803 36.4032 114.903 33.7032C116.803 33.0032 119.803 33.8032 121.703 35.0032C125.503 37.5032 128.803 40.7032 132.503 43.4032C134.603 44.9032 136.903 46.3032 139.303 47.2032C147.803 50.4032 151.803 49.2032 157.403 42.1032C160.403 38.2032 163.103 34.0032 166.203 30.1032C167.803 28.1032 169.603 26.0032 171.703 24.6032C176.103 21.7032 180.603 22.6032 182.903 27.3032C185.003 31.5032 186.403 36.2032 187.303 40.9032C188.003 45.5032 187.803 50.3032 188.003 54.5032Z" fill="#F3EDE4"/>
<path d="M28.7032 44.6032C31.5032 43.0032 34.4032 41.5032 37.1032 39.8032C42.1032 36.6032 46.7032 32.7032 52.0032 29.9032C61.0032 25.1032 71.4032 27.6032 79.0032 34.4032C93.2031 47.1032 96.5032 63.1032 94.2031 80.9032C92.8031 91.2032 86.6031 99.0032 78.7031 105.403C75.3031 108.203 71.1031 107.703 67.0032 107.003C60.4032 105.903 55.1032 102.603 50.7032 97.7032C45.3032 91.7032 41.4032 84.9032 38.7032 77.3032C37.7032 74.4032 37.1031 70.4032 32.8032 70.5032C28.6031 70.6032 26.5032 73.9032 25.6032 77.3032C23.9032 83.6032 23.1032 90.0032 21.6032 96.4032C20.5032 101.203 19.3032 106.003 17.9032 110.703C17.0032 113.703 14.9032 115.903 11.4032 116.203C7.80315 116.503 5.10315 114.503 4.00315 111.403C2.20315 105.903 -0.0968483 100.203 0.00315173 94.5032C0.203152 74.7032 1.30315 55.0032 2.00315 35.2032C2.20315 30.6032 5.80315 28.1032 8.60315 25.6032C11.8032 22.8032 16.0032 20.7032 20.1032 19.3032C26.7032 17.0032 30.9032 20.6032 30.3032 27.5032C30.0032 31.0032 29.0032 34.4032 28.4032 37.8032C28.1032 39.7032 27.9032 41.6032 27.6032 43.4032C28.1032 44.0032 28.4032 44.3032 28.7032 44.6032Z" fill="#F3EDE4"/>
<path d="M334.003 32.6033C351.203 33.2033 360.303 39.4033 366.303 54.0033C371.203 65.9033 373.003 77.8033 370.603 90.6033C365.803 116.203 337.503 124.103 320.203 117.203C302.303 110.103 292.203 90.7033 297.403 72.1033C299.803 63.5033 303.303 55.4033 308.703 48.3033C309.203 47.7033 309.703 46.9033 310.203 46.3033C316.903 38.6033 318.303 37.8033 322.103 35.0033C322.403 34.7033 323.103 34.4033 323.503 34.3033C327.503 33.4033 330.103 32.6033 334.003 32.6033ZM338.103 65.8033C332.803 62.9033 326.203 65.3033 324.003 70.9033C322.603 74.4033 321.803 77.3033 321.103 81.8033C319.803 85.5033 325.603 89.2033 329.403 89.0033C337.603 88.5033 343.003 86.3033 348.203 80.2033C350.803 77.2033 347.603 70.9033 344.203 69.0033L338.103 65.8033Z" fill="#F3EDE4"/>
<path d="M196.103 85.5033C197.003 79.3033 197.503 73.8033 198.603 68.5033C203.003 47.8033 219.803 31.3033 240.203 28.0033C245.003 27.2033 250.103 27.8033 254.903 28.4033C259.803 29.1033 262.703 32.3033 263.803 37.5033C264.403 40.3033 266.103 43.3033 268.103 45.4033C282.103 60.2033 284.603 77.5033 280.103 96.5033C279.703 98.0033 278.903 99.4033 278.103 100.703C274.103 107.703 267.603 108.803 262.203 102.703C259.603 99.8033 258.503 95.5033 257.003 91.6033C256.203 89.4033 256.203 87.0033 255.803 84.7033C255.203 81.3033 253.003 80.5033 250.103 81.6033C245.803 83.1033 243.203 86.1033 240.903 90.0033C237.303 96.0033 233.603 102.203 228.803 107.003C218.803 117.003 203.403 113.203 198.703 99.7033C197.003 95.0033 196.103 93.9033 196.103 85.5033ZM216.203 74.0033C217.103 78.2033 219.603 79.5033 219.603 79.5033C221.103 80.3033 224.103 80.1033 225.703 79.1033C233.903 73.7033 240.403 66.7033 243.803 57.3033C244.503 55.4033 243.903 50.9033 242.803 50.0033C241.003 48.6033 238.203 48.9033 235.903 49.4033C228.003 51.5033 217.303 65.6033 216.203 74.0033Z" fill="#F3EDE4"/>
<path d="M487.203 93.9032C487.003 91.7032 486.903 89.5032 487.103 87.3032C487.603 81.7032 487.903 77.2032 488.503 72.8032C490.003 62.8032 494.303 54.1032 502.103 47.6032C508.603 42.1032 515.303 36.8032 522.303 31.9032C529.103 27.1032 536.903 24.6032 545.403 24.7032C556.203 24.9032 564.003 34.2032 562.403 44.9032C562.103 46.6032 562.503 48.6032 563.203 50.2032C567.203 59.7032 571.503 69.2032 575.603 78.7032C578.603 85.6032 581.003 92.7032 578.903 100.303C578.003 103.503 576.703 106.803 574.903 109.603C571.003 115.603 565.203 117.703 558.903 116.003C553.403 114.503 549.803 109.503 549.103 102.703C548.603 97.9032 548.203 93.1032 547.303 88.4032C547.103 87.4032 544.803 85.9032 543.603 86.1032C538.003 86.8032 533.403 89.6032 530.403 94.6032C527.903 98.7032 525.703 103.003 522.803 106.903C520.103 110.403 517.103 114.003 513.503 116.503C504.003 123.103 493.203 119.703 489.703 108.703C488.103 103.703 487.703 98.4032 487.203 93.9032ZM517.403 83.1032C525.903 78.8032 533.503 68.5032 535.503 58.5032C536.103 55.6032 533.703 53.3032 530.303 53.7032C523.603 54.5032 511.803 63.7032 508.303 75.3032C505.903 83.2032 510.003 86.8032 517.403 83.1032Z" fill="#F3EDE4"/>
</svg>
